<svg id="Layer_1" data-name="Layer 1" xmlns="http://www.w3.org/2000/svg" xmlns:xlink="http://www.w3.org/1999/xlink" viewBox="0 0 721.83 721.83"><defs><style>.cls-1{fill:none;}.cls-2{clip-path:url(#clip-path);}.cls-3{fill:#b19253;}.cls-4{fill:#bea35a;}.cls-5{fill:#cbb261;}.cls-6{fill:#b99c57;}.cls-7{fill:#c6ac5e;}.cls-8{fill:#b29353;}.cls-9{fill:#b29454;}.cls-10{fill:#bfa35a;}.cls-11{fill:#e2ce6e;}.cls-12{fill:#b69956;}.cls-13{fill:#e2cf6e;}.cls-14{fill:#bb9e58;}.cls-15{fill:#b59755;}.cls-16{fill:#c9af5f;}.cls-17{fill:#b29453;}.cls-18{fill:#c0a45b;}.cls-19{fill:#b99b57;}.cls-20{fill:#b09252;}.cls-21{fill:#c5aa5d;}.cls-22{fill:#b89b57;}.cls-23{fill:#dbc76a;}.cls-24{fill:#d2bb65;}.cls-25{fill:#b79a56;}.cls-26{fill:#d7c168;}.cls-27{fill:#c2a65c;}.cls-28{fill:#ceb563;}.cls-29{fill:#cfb763;}.cls-30{fill:#c0a55b;}.cls-31{fill:#c2a85c;}.cls-32{fill:#c2a75c;}.cls-33{fill:#ba9d58;}.cls-34{fill:#b49654;}.cls-35{fill:#d5be67;}.cls-36{fill:#dcc76a;}.cls-37{fill:#c8ae5f;}.cls-38{fill:#ddc86b;}.cls-39{fill:#bfa45a;}.cls-40{fill:#bca059;}.cls-41{fill:#ceb663;}.cls-42{fill:#c4a95d;}.cls-43{fill:#d5bf67;}.cls-44{fill:#dbc66a;}.cls-45{fill:#ba9f58;}.cls-46{fill:#bfa45b;}.cls-47{fill:#ae9554;}.cls-48{fill:#c3a85d;}.cls-49{fill:#bda15a;}.cls-50{fill:#ba9d57;}.cls-51{fill:#9d874d;}.cls-52{fill:#bb9f59;}.cls-53{fill:#c5aa5f;}.cls-54{fill:#b19353;}.cls-55{fill:#bda059;}.cls-56{fill:#ceb764;}.cls-57{fill:#b69856;}.cls-58{fill:#c5ac5e;}.cls-59{fill:#c4aa5d;}.cls-60{fill:#bc9f59;}.cls-61{fill:#b69855;}.cls-62{fill:#b49a56;}.cls-63{fill:#d4bd66;}.cls-64{fill:#cfb864;}.cls-65{fill:#c7ae5f;}.cls-66{fill:#c9b060;}.cls-67{fill:#b79a57;}.cls-68{fill:#b39554;}.cls-69{fill:#a88f51;}.cls-70{fill:#d5be66;}.cls-71{fill:#b79956;}.cls-72{fill:#d1ba65;}.cls-73{fill:#bea15a;}.cls-74{fill:#c7ad5f;}.cls-75{fill:#bea25a;}.cls-76{fill:#c8af5f;}.cls-77{fill:#b89d58;}.cls-78{fill:#ba9e58;}.cls-79{fill:#d3bd66;}.cls-80{fill:#bea25b;}.cls-81{fill:#c4aa5e;}.cls-82{fill:#a58e50;}.cls-83{fill:#c8af61;}.cls-84{fill:#e1ce6d;}.cls-85{fill:#cab262;}.cls-86{fill:#b39454;}.cls-87{fill:#dcc76b;}.cls-88{fill:#c4a95e;}.cls-89{fill:#d6c067;}.cls-90{fill:#c6ab5e;}.cls-91{fill:#b59b56;}.cls-92{fill:#a58e51;}.cls-93{fill:#b99c58;}.cls-94{fill:#af9654;}.cls-95{fill:#c1a65c;}.cls-96{fill:#9e884e;}.cls-97{fill:#a28b51;}.cls-98{fill:#b49655;}.cls-99{fill:#e0cc6d;}.cls-100{fill:#c6ac5f;}.cls-101{fill:#ba9f59;}.cls-102{fill:#b39555;}.cls-103{fill:#dfcb6d;}.cls-104{fill:#b99e58;}.cls-105{fill:#bfa35b;}.cls-106{fill:#b89e58;}.cls-107{fill:#c2a75d;}.cls-108{fill:#b09152;}.cls-109{fill:#ac9454;}.cls-110{fill:#ddc96c;}.cls-111{fill:#c9af60;}.cls-112{fill:#d1b965;}.cls-113{fill:#bb9f5a;}.cls-114{fill:#ac9353;}.cls-115{fill:#cbb361;}.cls-116{fill:#b49a57;}.cls-117{fill:#c7ae60;}.cls-118{fill:#c0a55c;}.cls-119{fill:#c0a45a;}.cls-120{fill:#d8c268;}.cls-121{fill:#b29855;}.cls-122{fill:#ddc96b;}.cls-123{fill:#d6c068;}.cls-124{fill:#d9c46c;}.cls-125{fill:#ba9e5c;}.cls-126{fill:#ba9e59;}.cls-127{fill:#ab9355;}.cls-128{fill:#ab9354;}.cls-129{fill:#c1a55b;}.cls-130{fill:#e0cc6e;}.cls-131{fill:#bfa45c;}.cls-132{fill:#e1ce6e;}.cls-133{fill:#d2bb66;}.cls-134{fill:#b79a58;}.cls-135{fill:#cdb563;}.cls-136{fill:#c9b061;}.cls-137{fill:#ae9656;}.cls-138{fill:#bda159;}.cls-139{fill:#d5bf68;}.cls-140{fill:#bb9e59;}.cls-141{fill:#dac56a;}.cls-142{fill:#c7ad60;}.cls-143{fill:#c1a65d;}.cls-144{fill:#d7c169;}.cls-145{fill:#b59b57;}.cls-146{fill:#b09758;}.cls-147{fill:#ddc970;}.cls-148{fill:#d3bc66;}.cls-149{fill:#d4be66;}.cls-150{fill:#d2bc65;}.cls-151{fill:#c2a85d;}.cls-152{fill:#d4be68;}.cls-153{fill:#dbc66b;}.cls-154{fill:#c5ab60;}.cls-155{fill:#c5af81;}.cls-156{fill:#c5b68e;}.cls-157{fill:#d2bc66;}.cls-158{fill:#e1cd6e;}.cls-159{fill:#cab261;}.cls-160{fill:#c3a95e;}.cls-161{fill:#c8af60;}.cls-162{fill:#d3bc67;}.cls-163{fill:#c9b062;}.cls-164{fill:#d8c269;}.cls-165{fill:#cbb262;}.cls-166{fill:#d0b965;}.cls-167{fill:#cfb764;}.cls-168{fill:#d5c06d;}</style><clipPath id="clip-path"><rect class="cls-1" width="721.83" height="721.83"/></clipPath></defs><title>rm-logo-part</title><g class="cls-2"><path class="cls-3" d="M278,433.21l-.46,1.59c-1.56-.06-2.29-1.32-3.22-2.25q-35.91-35.87-71.79-71.78c-.92-.93-2.19-1.67-2.25-3.22a5.15,5.15,0,0,1,3.08.22c1.35.78,2.83.25,4.24.41,20.29,2.17,39.69,6.7,54.27,22.41a60.18,60.18,0,0,1,15.07,30.61c.24,1.3.7,2.56,1.05,3.84,0,1.18-.47,2.43.42,3.51V429C277.45,430.3,278,431.78,278,433.21Z"/><path class="cls-4" d="M338.07,655a106.48,106.48,0,0,1-17.64-8.75c1.31-2.22-1-2.71-1.94-3.61q-45.6-45.78-91.33-91.43c-8.42-8.42-16.82-16.85-25.29-25.22-.76-.74-1.31-2.73-3.1-1.29-3.1-4.42-8.06-3.66-12.47-4.46,1.25-.25,3.14.74,3.65-.53.59-1.47-1.21-2.45-2.2-3.46-2.46-2.52-5.07-4.91-7.43-7.51-2-2.21-4.83-3.74-5.86-6.78l13.27.73c1,1.08,2,2.19,3,3.23q71.44,71.48,142.91,142.92C335.44,650.69,337.32,652.46,338.07,655Z"/><path class="cls-5" d="M293.8,584.43c6.24,6.83,12.41,13.73,18.74,20.47,5.59,6,12,11.05,18.14,16.41.09,1.69,1.48,2.49,2.49,3.5q18.6,18.66,37.23,37.29c1.11,1.12,2.83,2,2.35,4.09a31.69,31.69,0,0,1-11.09-3c0-1.55-1.27-2.31-2.2-3.25q-78.87-79.07-157.77-158.12l6.65-2.29a11.36,11.36,0,0,0,2.7,3.89q39.09,39.06,78.16,78.15C290.52,582.93,291.84,584.19,293.8,584.43Z"/><path class="cls-6" d="M518.59,432.59c2.48-5.76,5.17-11.42,8.19-16.92,2.35.59,4,2.19,5.65,3.83q21.14,21.15,42.3,42.28c1,1,1.79,2.4,3.47,2.51.73,7.59,2.76,15,3.41,22.6a23.39,23.39,0,0,1,.27,3.93c-1.67-.11-2.45-1.51-3.46-2.51q-16.65-16.57-33.23-33.21a13.45,13.45,0,0,0-4.33-3.31c-.82-4.83-1.65-9.65-2.63-15.4l-4.88,8.68q-6.06-6.21-12.12-12.44C520.32,431.69,519.48,432.2,518.59,432.59Z"/><path class="cls-7" d="M201.69,501.86q78.88,79,157.77,158.12c.93.94,2.17,1.7,2.2,3.25a37.27,37.27,0,0,1-11.05-3.68c-.16-2-1.82-2.85-3-4q-74-74.07-148.06-148.11c-1.55-1.55-3-3.21-4.49-4.82C197.21,501.74,199.47,502,201.69,501.86Z"/><path class="cls-6" d="M471.44,193a94.52,94.52,0,0,1,7.62,28.83,48.69,48.69,0,0,1,.39,8.78c-3-.87-4.1-4.32-7.13-5.13-.52-3.37-1-6.74-1.58-10.09a62.26,62.26,0,0,0-5.35-17.72c-2.37,1.81-4.59,3-7.24,3.3-8.32-8.4-16.6-16.86-25-25.16-1.42-1.38-1.87-3.86-4.34-4.12,4.42-1.62,8.94-.22,13.6-.07a5.89,5.89,0,0,0-.5-1,10.23,10.23,0,0,0-1.08-1c-8.63-7.2-19.05-9-29.78-9.87-2.37-3.08-3.65-7.49-8.78-7.23,8.12-1.36,16.06-.11,23.88,1.89,4.67,1.2,9.39,2.46,13.64,4.91-.23,1.9,1.21,2.83,2.3,3.94Z"/><path class="cls-3" d="M586.23,517.3q1.92,13.68,3.86,27.36c-2,1.36-2.53-.86-3.34-1.66-11.74-11.6-23.37-23.29-35.06-34.93-1-1-1.79-2.4-3.46-2.52-1.53-3.78-1.25-7.85-1.74-11.79-.66-5.18-2.22-10.24-2-15.52,1.8-2,2.61.18,3.43,1Q567.1,498.21,586.23,517.3Z"/><path class="cls-8" d="M112.68,482V460.61c1.55.06,2.29,1.32,3.22,2.25Q143,489.89,170,517c.92.92,2.19,1.66,2.25,3.22l-1.52.13a35.94,35.94,0,0,0-13.16,0l-1.07.78c-.64.57-.45,1.37-.58,2.09a12,12,0,0,1-4.09-3Q134,502.3,116.16,484.5C115.15,483.49,114.36,482.09,112.68,482Z"/><path class="cls-9" d="M343.92,130.46c2.31.32,3.19-1.14,3.71-3a3.08,3.08,0,0,0,0-3.57c-2.09-6.91-7.07-12.38-9.49-19.1-1.48-4.11-3.28-8.17-3-12.7a16,16,0,0,1,0-2.19c.1-.78-.52-1.88.49-2.27.85-.33,1.58.42,2.21,1s1.22,1.2,1.82,1.81Q352.24,103,364.8,115.51c1,1,1.8,2.39,3.5,2.41-.81,2.85-2.68,5.33-2.29,8.6.41,3.53,1.36,4.21,4.88,3.38,1.83-.42,3.14-1.63,4.81-2.2,3.79,3.43,8.2,6.3,10.25,11.32-6,2.79-11.84,3-17.69-.59a15.62,15.62,0,0,0-8.08-2.07c-1.21.91-.73,2.22-.75,3.38-.08,4.25-.07,8.5-.1,12.76-2.23,0-2.74-2.85-4.92-2.91-.21-3.37-.6-6.75-.56-10.13,0-3-.88-3.82-3.66-2.67a9.91,9.91,0,0,1-2.53.31c-1.36-1.5-2.74-3-4.08-4.48C342.84,131.79,341.83,130.87,343.92,130.46Z"/><path class="cls-10" d="M578.2,464.29c-1.68-.11-2.46-1.5-3.47-2.51q-21.16-21.12-42.3-42.28c-1.64-1.64-3.3-3.24-5.65-3.83a96.67,96.67,0,0,1,8.08-16.19c.63.75,1.21,1.54,1.9,2.23q16.9,16.94,33.84,33.85a9.11,9.11,0,0,0,1.6,1.51c1.93,1.16,1.56-.47,1.68-1.47,1.71,6.35,2.08,12.91,2.9,19.39C577.18,458.11,578.73,461.05,578.2,464.29Z"/><path class="cls-11" d="M369.68,412.67a42.71,42.71,0,0,1,1.67-11c1,.9,2,1.77,3,2.72q31.38,31.35,62.8,62.69c.81.81,1.32,3,3.36,1.67,4,8.31,8.68,16.3,11.89,25-1.88,0-2.71-1.53-3.8-2.61Q410.77,453.36,373,415.56C371.94,414.53,370.78,413.63,369.68,412.67Z"/><path class="cls-12" d="M172.25,520.18c-.06-1.56-1.33-2.3-2.25-3.22q-27-27.08-54.1-54.1c-.93-.93-1.67-2.19-3.22-2.25V447.34c1.69.11,2.47,1.51,3.48,2.52q17.75,17.68,35.42,35.41a13.32,13.32,0,0,0,4.36,3.31c.44,2.44-.58,5,.71,7.37.75,2.49,2.94,3.07,5,3.62A84.11,84.11,0,0,0,174.46,502c1,3,3.85,4.57,5.86,6.78,2.36,2.6,5,5,7.43,7.51,1,1,2.79,2,2.2,3.46-.51,1.27-2.4.28-3.65.53Z"/><path class="cls-13" d="M156.65,496c-1.29-2.35-.27-4.93-.71-7.36V466.48q0-6.63,0-13.25T156,440V429.65c1.12-6.32-1.11-10.93-5.88-15.41-11.89-11.17-23.19-23-34.74-34.49a9.54,9.54,0,0,0-3.09-2.55c-.84-.32-1.1.08-1.15.82a18.71,18.71,0,0,0-10.3-11.76c.3-2-1.69-2.35-2.51-3.54-1.29-1.86-3.83-2.77-4.16-5.39l4.29-.18,10.49.4a17.53,17.53,0,0,0,1.14,1.41q21.78,21.81,43.59,43.58c.57.57,1,1.43,2.32,1.42v-13.4L156,378.8l.52,0q0,20.19.07,40.37Q156.64,457.55,156.65,496Z"/><path class="cls-14" d="M198.77,524.74c1.79-1.44,2.34.55,3.1,1.29,8.47,8.37,16.87,16.8,25.29,25.22q45.69,45.69,91.33,91.43c.9.9,3.25,1.39,1.94,3.61-7.09-3.16-13.9-6.78-19.9-11.79.1-2-1.43-3.17-2.65-4.39q-38.1-38.16-76.26-76.25c-1.45-1.44-2.87-3.1-5.16-3.32A298.67,298.67,0,0,1,198.77,524.74Z"/><path class="cls-15" d="M586.23,517.3q-19.17-19-38.36-38.07c-.82-.81-1.63-3-3.43-1-1.28-8.81-3.32-17.51-3.58-26.45a13.45,13.45,0,0,1,4.33,3.31q16.59,16.62,33.23,33.21c1,1,1.79,2.4,3.46,2.51,1.71,6.09,2.13,12.4,3.08,18.61C585.36,512.06,585.8,514.68,586.23,517.3Z"/><path class="cls-16" d="M156.76,590.36c.63,3.93.08,8,1.07,11.87,0,1.19-.5,2.44.44,3.51-.44,3.83.94,7.4,1.55,11.09-1-.86-2.11-1.66-3-2.59Q136.88,594.38,117,574.49a13.38,13.38,0,0,0-4.34-3.31V551.27A13.58,13.58,0,0,1,117,554.6q18.33,18.36,36.7,36.67c.72.71,1.31,2.14,2.61,1.5C157.11,592.38,156.69,591.2,156.76,590.36Z"/><path class="cls-17" d="M382.25,305.58a106.31,106.31,0,0,0-17.09,15.68c-1-.9-1.93-1.83-2.94-2.68-2.66-2.22-4.41-5.48-7.81-6.85a201.24,201.24,0,0,0-.12-20.55c0-1.27.16-2.18-1.89-2-7.85.63-14-2.59-18.62-8.91q-2.8-3.87-5.26-8c-4.16-7-9.17-12.51-18.25-11.91-1.48.1-2.1-.55-1.29-2,2.4-4.31,5.45-7.8,10.71-8.51,1.23,1.35,2.4,2.77,3.69,4.06q16.9,17,33.87,33.85c1.36,1.35,2.55,2.66,2.17,4.75.07,6,.08,12,.26,18,0,1.3-.78,3.23,1.26,3.76,1.74.46,2.62-1.17,3.51-2.23a78.49,78.49,0,0,1,12.65-12.13C379.1,301.56,381.3,303,382.25,305.58Z"/><path class="cls-18" d="M112.68,534.3V515.16a13.73,13.73,0,0,1,4.35,3.33q17.68,17.71,35.42,35.41c1,1,1.78,2.42,3.48,2.49,0,5.51.08,11,.08,16.53,0,.68.38,1.59-.43,2s-1.41-.22-2-.7c-.74-.65-1.42-1.35-2.11-2.05q-17.69-17.67-35.37-35.33C115.14,535.81,114.36,534.41,112.68,534.3Z"/><path class="cls-19" d="M368.3,117.92c-1.7,0-2.49-1.41-3.5-2.41Q352.22,103,339.68,90.42c-.6-.61-1.2-1.22-1.82-1.81s-1.36-1.33-2.21-1c-1,.39-.39,1.49-.49,2.27a16,16,0,0,0,0,2.19c-1.33-3.48-.37-7,.41-10.29.62-2.68,3.35-1.6,4.94-1.21a15.83,15.83,0,0,0,6.42.23,3,3,0,0,0,0-3.47c0-1.94.07-3.87.11-5.81Q359.9,84.24,372.74,97a13,13,0,0,0,4.35,3.26C375.22,106.64,371.94,112.37,368.3,117.92Z"/><path class="cls-20" d="M168.37,237.27c1.38,9,7,14.87,14.4,19.28A51.62,51.62,0,0,0,201,263.22c.15,1.77,1.69,2.53,2.71,3.66,1.51,1.69,3.29,3.12,4.46,5.13s-.59,1.13-1.22,1.39c-8.32-.61-16-3.5-23.57-6.72a72.76,72.76,0,0,1-21.47-13.74c-9.73-9.11-16.12-19.95-14.43-34.05,2.38-.19,3.28,1.87,4.67,3.12C157.67,227,162.14,233.06,168.37,237.27Z"/><path class="cls-3" d="M472.32,225.52c3,.81,4.14,4.26,7.13,5.13l.13,6.7c-.95,1.34-.32,2.88-.55,4.31-.65,2.81-1.12,5.67-2,8.39-.53,1.54.14,2.23,1,3.13a16.63,16.63,0,0,1,4.31,7.08c.64,2.66,1.84,3.69,4.55,3.91,2.41.2,4.83.37,7.25.47a6.91,6.91,0,0,0,5.32-.09l5.26.05c1.82,3,5.3,4.54,6.58,7.95a67,67,0,0,1-17.7,2.33l-6.59-.1c-.14-1.67-1.51-2.46-2.52-3.47q-17.32-17.38-34.69-34.74c-1-1-2.4-1.77-2.59-3.42,10.07-3.3,17.31,1.61,23.93,8.66C472.73,236.2,471.93,230.81,472.32,225.52Z"/><path class="cls-14" d="M155.93,556.39c-1.7-.07-2.47-1.49-3.48-2.49Q134.71,536.22,117,518.49a13.73,13.73,0,0,0-4.35-3.33V496.71c1.68.12,2.46,1.51,3.46,2.51q18.18,18.12,36.32,36.26c1,1,1.76,2.42,3.46,2.47Z"/><path class="cls-21" d="M155.93,556.39V538q0-7.38,0-14.76c.13-.72-.06-1.52.58-2.09q.13,34.64.26,69.26c-.07.84.35,2-.43,2.41-1.3.64-1.89-.79-2.61-1.5Q135.35,573,117,554.6a13.58,13.58,0,0,0-4.34-3.33v-17c1.68.11,2.46,1.51,3.47,2.52q17.71,17.64,35.37,35.33c.69.7,1.37,1.4,2.11,2.05.54.48,1.22,1,2,.7s.43-1.3.43-2C156,567.41,156,561.9,155.93,556.39Z"/><path class="cls-22" d="M276,441.42c.39,2.19-1.14,3.9-1.47,5.91-1.69-.1-2.47-1.51-3.48-2.51q-21.51-21.46-43-43c-1.31-1.31-2.57-2.65-4.46-3.1a63.25,63.25,0,0,0-20.49-18.39,10.27,10.27,0,0,0-2.89-4.15q-8.06-8-16.06-16.05c-.57-.58-1.56-1.11-1.25-2.05s1.45-.65,2.25-.66c2.31,0,4.63.05,6.95.08.56.65,1.07,1.34,1.67,1.94q40.13,40.14,80.27,80.26C274.71,440.34,275.4,440.86,276,441.42Z"/><path class="cls-23" d="M440.49,468.75c-2,1.35-2.55-.86-3.36-1.67q-31.47-31.29-62.8-62.69c-.95-.95-2-1.82-3-2.72-.29-3.31.74-6.43,1.48-9.58a13.45,13.45,0,0,1,4.33,3.31q24.25,24.28,48.54,48.53c1.09,1.08,1.92,2.62,3.78,2.66Z"/><path class="cls-24" d="M397.75,463.58A137,137,0,0,1,390.41,448c1.85-3.06,2.6.23,3.2.82q34.23,34,68.31,68.15c1,1,1.8,2.4,3.46,2.57,1.49,2.88,3.11,5.7,4.43,8.66.85,1.89,1.51,1.12,2.36.16,5.65,3.38,9.53,8.63,14,13.24-1,2-1.4,4.21-2.94,5.88,0-1.56-1.27-2.31-2.2-3.24q-39.87-39.92-79.79-79.8a11.77,11.77,0,0,0-2.17-2C398.06,461.92,397.9,462.85,397.75,463.58Z"/><path class="cls-5" d="M397.75,463.58c.15-.73.31-1.66,1.33-1.07a11.77,11.77,0,0,1,2.17,2q39.9,39.88,79.79,79.8c.93.93,2.19,1.68,2.2,3.24-.85,1.44-.81,3.3-2.18,4.49a13.38,13.38,0,0,1-4.65-3.52q-33.56-33.6-67.14-67.16a22.43,22.43,0,0,0-2.39-2.29c-.86-.65-.92.17-1,.76A151.29,151.29,0,0,1,397.75,463.58Z"/><path class="cls-18" d="M151.65,633.78l-3-.11a3.5,3.5,0,0,0-1.45-2.44l-32.66-32.67c-.78-.77-1.49-1.65-2.75-1.62l-.18-.66.39-6.77c1.35-2.08-.1-4.55.88-6.7,3.63,1.39,49.82,47.9,50.53,51Z"/><path class="cls-21" d="M151.65,633.78h11.77c-.71-3.07-46.9-49.58-50.53-51-1,2.15.47,4.62-.88,6.7,0-2.87-.09-5.74-.13-8.6.78-1.44.41-3,.35-4.47l.45-5.26a13.38,13.38,0,0,1,4.34,3.31q19.86,19.89,39.75,39.75c.94.93,2,1.73,3,2.59,2.16,4.06,5.07,7.33,9.51,9,1.22,3.62,5.42,5,6.6,8.61C167.83,634.5,159.72,634.73,151.65,633.78Z"/><path class="cls-25" d="M216.46,550.54c2.29.22,3.71,1.88,5.16,3.32q38.17,38.08,76.26,76.25c1.22,1.22,2.75,2.34,2.65,4.39-5.47-2.32-9.82-6.35-14.57-9.76-14.7-10.53-27.44-23.29-39.86-36.3a258.74,258.74,0,0,1-25.85-31.85C218.91,554.64,216.9,553.07,216.46,550.54Z"/><path class="cls-10" d="M377.09,100.22A13,13,0,0,1,372.74,97Q359.92,84.23,347,71.52a46.43,46.43,0,0,1,4.29-22.17C354.7,55,359.85,59,364.61,63.28,366,64.53,366,62.9,366.06,62c1.36,2.34.23,5,1.08,7.45V74.3a7.78,7.78,0,0,0-.3,1.4c-.3,5.93-.2,5.94,5.87,4.84,2.6-.47,5.46-.91,6.22,2.87,0,1.7-.54,3.44.39,5.07a1.2,1.2,0,0,0,0,.65c-.95,1.63-.29,3.43-.52,5.14C378.28,96.26,378.25,98.4,377.09,100.22Z"/><path class="cls-15" d="M155.92,523.19q0,7.38,0,14.76c-1.71-.05-2.47-1.47-3.47-2.47q-18.18-18.11-36.32-36.26c-1-1-1.78-2.39-3.46-2.51V482c1.68.12,2.47,1.52,3.48,2.53q17.86,17.79,35.67,35.65A12,12,0,0,0,155.92,523.19Z"/><path class="cls-26" d="M465.38,519.57c-1.66-.17-2.44-1.56-3.46-2.57q-34.14-34.1-68.31-68.15c-.6-.59-1.35-3.88-3.2-.82a26.82,26.82,0,0,1-3.59-6.9c-.32-.81-.68-1.17-1.51-1.13-5.25-4.31-9.63-9.52-14.59-14.13-.77-.71-1.23-2.34-2.87-1.45.2-1.46.41-2.93.62-4.4,1.89-2.65,2.87-.15,3.85.82q41.42,41.31,82.76,82.68c1.09,1.09,1.92,2.62,3.74,2.78Q462.09,512.93,465.38,519.57Z"/><path class="cls-10" d="M471.44,193l-29.38-29.73c-1.09-1.11-2.53-2-2.3-3.94,3,1.06,5.48,3.16,8.2,4.78,1.51.89,2.52.93,2.77-1,.5-4,2.43-7.31,4.51-10.6-.26,1.86,1,2.89,2.14,4q9.87,9.84,19.72,19.73a12.47,12.47,0,0,0,3.82,2.78C480.94,185.88,477.4,190.28,471.44,193Z"/><path class="cls-27" d="M189.89,174.64c3,.15,6-.34,8.84.78-2.77,1.49-.06,2.34.55,3q14.22,14.42,28.6,28.67c.75.75,1.45,2.19,2.53,1.85,1.5-.48.54-2.13.78-3.24,1.34,5.24.07,10.19-1.63,15.09-.47,1.35-1,2.67-1.56,4-3.85-2-6.1-5.74-9.31-8.43-2.19-1.83-3.59-4.6-6.52-5.55,0-.26-.09-.52-.14-.78a6.91,6.91,0,0,0,0-5.8c-1.18-8.12-6.51-12.69-13.63-15.57a47.07,47.07,0,0,0-6.31-1.63c-4.41-2.6-8.18-5.82-10.24-10.67l4.47-1.12C187.51,175.05,188.81,175.56,189.89,174.64Z"/><path class="cls-28" d="M156,440q0,6.63,0,13.27a14.15,14.15,0,0,1-4.36-3.32q-19.44-19.34-38.91-38.65V398a13.42,13.42,0,0,1,4.35,3.31Q136.49,420.66,156,440Z"/><path class="cls-15" d="M276,441.42c-.64-.56-1.33-1.08-1.93-1.68Q234,399.62,193.84,359.48c-.6-.6-1.11-1.29-1.67-1.94l3.64-.1,4.45.11c.06,1.55,1.33,2.29,2.25,3.22q35.88,35.91,71.79,71.78c.93.93,1.66,2.19,3.22,2.25C277,437,276.53,439.21,276,441.42Z"/><path class="cls-10" d="M429.45,131.21c-8.2-4.05-16.6-2.8-25-1,.95-1.61-.6-2.15-1.35-2.91-3.74-3.84-7.56-7.59-11.34-11.39-.92-.94-2.11-1.73-2.11-3.27,4.95-6.07,11.12-10.08,19.09-10.62,6.47-.43,6.89,1.78,5.39,6.47-.52,1.62-1.14,3.23-.11,4.88,3.68,4.76,8.34,8.58,12.46,12.92C427.81,127.75,429.27,129.07,429.45,131.21Z"/><path class="cls-29" d="M293.8,584.43c-2-.24-3.28-1.5-4.6-2.82Q250.12,542.52,211,503.46a11.36,11.36,0,0,1-2.7-3.89l3.59-2.16c1.84.06,2.71,1.55,3.8,2.64q18.21,18.16,36.36,36.37a24.46,24.46,0,0,0,5.74,4.49c4.83,4.82,8.63,10.49,13,15.7C278.51,565.86,286.14,575.16,293.8,584.43Z"/><path class="cls-30" d="M478.11,557.9a18.52,18.52,0,0,1-2.95,5.89c-1-.88-2.06-1.71-3-2.65q-23.64-23.61-47.27-47.23c-1-1-1.8-2.4-3.5-2.47a89.41,89.41,0,0,1-8.11-17c1.8-1.29,2.34.64,3.1,1.4q30,29.85,59.86,59.81C476.91,556.35,477.48,557.16,478.11,557.9Z"/><path class="cls-31" d="M195.06,502.6c1.5,1.61,2.94,3.27,4.49,4.82q74,74.05,148.06,148.11c1.18,1.17,2.84,2.06,3,4-2.74.12-4.85-1.68-7.33-2.37,1.44-2.28-.79-3.07-1.85-4.12q-47.44-47.55-95-95-25.9-25.9-51.8-51.82c-1-1-2.41-1.79-2.52-3.48Z"/><path class="cls-14" d="M354.41,311.73c3.4,1.37,5.15,4.63,7.81,6.85,1,.85,2,1.78,2.94,2.68-4,5.29-2.13,10.77-.55,16.25-1.75,1.45-2.22-.56-3.05-1.24-3.52-2.84-5.89-7-10.1-9.06-2.74-6.94-8.19-11.57-13.59-16.33-4.1-3.6-8.74-6.39-13.06-9.65A7.84,7.84,0,0,0,322.2,297c-3.71-3.68-7.43-7.35-11.06-11.11-.68-.71-2.49-1.22-1.13-2.84,3.95,2.08,8,4,11.83,6.25a110.83,110.83,0,0,1,28.21,23.27C352.25,315.05,353.34,314.81,354.41,311.73Z"/><path class="cls-32" d="M192.15,502.73c.11,1.69,1.51,2.47,2.52,3.48q25.88,25.94,51.8,51.82,47.49,47.51,95,95c1.06,1.05,3.29,1.84,1.85,4.12L338.07,655c-.75-2.58-2.63-4.35-4.44-6.16Q262.17,577.42,190.72,506c-1-1-2-2.15-3-3.23Z"/><path class="cls-14" d="M421.38,511.44c1.7.07,2.49,1.46,3.5,2.47q23.65,23.6,47.27,47.23c1,.94,2,1.77,3,2.65-1,2.8-1.92,5.65-3.73,8.08-1-.89-2.06-1.72-3-2.66C458,558.75,447.51,548.27,437,537.86c-.77-.76-1.3-2.68-3.1-1.39C429.42,528.28,424.87,520.13,421.38,511.44Z"/><path class="cls-10" d="M482.79,204.89c.42-6.28,3.14-11.56,7.07-16.31a42.33,42.33,0,0,0,12.43,12.61C501.23,207,501,212.63,505,217.53c4.29,5.16,10,6.62,16.38,5.9,1.42-.16,2.82-.39,4.68-.65-2.86,6.31-6.67,10.88-13.34,12.4,0-1.4-1-2.17-1.87-3q-12.7-12.74-25.45-25.45C484.68,206,484,205,482.79,204.89Z"/><path class="cls-33" d="M111.8,596.94c1.26,0,2,.85,2.75,1.62l32.66,32.67a3.5,3.5,0,0,1,1.45,2.44l-9.62.14a12.77,12.77,0,0,0-7.52-.08l-4.1-.28c1.66-.86,1.14-1.74.1-2.77q-7.9-7.84-15.76-15.74a3.2,3.2,0,0,0-2.24-1.08q.78-6.27,1.55-12.54C112.15,600,111.21,598.34,111.8,596.94Z"/><path class="cls-34" d="M433.9,536.47c1.8-1.29,2.33.63,3.1,1.39,10.51,10.41,20.95,20.89,31.43,31.35.94.94,2,1.77,3,2.66-1.82,3.55-3.46,7.21-5.5,10.63-2.42,4.06-6,4.1-8.18,0-7.94-14.85-15.73-29.78-23.55-44.68A4.92,4.92,0,0,1,433.9,536.47Z"/><path class="cls-35" d="M429.48,446.59c-1.86,0-2.69-1.58-3.78-2.66q-24.3-24.24-48.54-48.53a13.45,13.45,0,0,0-4.33-3.31,32.41,32.41,0,0,1,1.47-9.58c1,.9,2,1.76,3,2.7l37.59,37.58c1.19,1.18,2.2,2.72,4.24,2.45C423,432.13,426.09,439.44,429.48,446.59Z"/><path class="cls-7" d="M112.68,411.26q19.45,19.32,38.91,38.65a14.15,14.15,0,0,0,4.36,3.32q0,6.61,0,13.25c-1-.89-2-1.75-3-2.69Q134.55,445.4,116.15,427c-1-1-1.79-2.4-3.47-2.5Z"/><path class="cls-36" d="M156,390.56V404c-1.34,0-1.75-.85-2.32-1.42Q131.83,380.78,110.05,359a17.53,17.53,0,0,1-1.14-1.41l4.35-.11a6.07,6.07,0,0,0,5.34,0c2.11.52,4.4-.53,6.44.7-2.92,1.16-.33,2.1.26,2.7q14,14.21,28.2,28.28C154.19,389.85,154.85,390.61,156,390.56Z"/><path class="cls-7" d="M478.11,557.9c-.63-.74-1.2-1.55-1.88-2.23q-29.91-29.94-59.86-59.81c-.76-.76-1.3-2.69-3.1-1.4a90.87,90.87,0,0,1-7.41-14.67c.1-.59.16-1.41,1-.76a22.43,22.43,0,0,1,2.39,2.29q33.57,33.57,67.14,67.16a13.38,13.38,0,0,0,4.65,3.52A18.58,18.58,0,0,1,478.11,557.9Z"/><path class="cls-37" d="M275.43,279.86l-21.32-3.51c2.95,0,2-1.23.75-2.5C249.24,268.22,243.6,262.61,238,257c-1-1-2.37-1.84-2.4-3.54a3.7,3.7,0,0,0,1-4.18,32,32,0,0,1-1.78-10.45c1.59-.08,2.36,1.15,3.29,2.08q17.67,17.64,35.31,35.3C274.43,277.21,275.66,278.13,275.43,279.86Z"/><path class="cls-38" d="M458.82,506.3c-1.82-.16-2.65-1.69-3.74-2.78q-41.38-41.32-82.76-82.68c-1-1-2-3.47-3.85-.82.2-2.49.17-5,1.21-7.35,1.1,1,2.26,1.86,3.29,2.89q37.81,37.79,75.61,75.57c1.09,1.08,1.92,2.64,3.8,2.61A116.12,116.12,0,0,1,458.82,506.3Z"/><path class="cls-8" d="M240.78,197.49c1.5-2.91,1.44-4.77-2.16-6.52-3-1.44-4.82-4.69-5.39-8.26q0-3.63,0-7.25c.71-2,.69-4.36,2.46-5.94a3.69,3.69,0,0,1,3.21,1.38q13.49,13.53,27,27c.92.91,1.79,1.77.69,3.09-5.57,1.35-11,.93-15.94-2-2.43-1.44-3.11-.76-3.5,1.59a11.24,11.24,0,0,1-.73,2.06Z"/><path class="cls-39" d="M112.68,424.5c1.68.1,2.46,1.5,3.47,2.5q18.42,18.38,36.82,36.79c.95.94,2,1.8,3,2.69v11.79c-1-.9-2-1.76-3-2.71Q135,457.62,117,439.63a13.7,13.7,0,0,0-4.35-3.32Z"/><path class="cls-30" d="M594.55,566.7c1.06,1.91,2.05,3.86,3.19,5.72,2.13,3.47,5.81,4.65,9.28,6.12-.62,1.78.93,2.49,1.77,3.54s2.56,1.92,2.7,3.71c-5.73,1-10-.95-14.11-5.3-13.43-14-27.37-27.62-41.14-41.34-1.09-1.08-1.91-2.64-3.8-2.61-1-3.36-1.12-6.86-1.48-10.32,1.74-.06,2.54,1.34,3.55,2.35,12.23,12.19,24.41,24.43,36.7,36.57C592,565.93,592.51,568.24,594.55,566.7Z"/><path class="cls-40" d="M223.66,398.76c1.89.45,3.15,1.79,4.46,3.1q21.47,21.5,43,43c1,1,1.79,2.41,3.48,2.51a25.83,25.83,0,0,1-2.95,8.11c-1.69-.1-2.47-1.51-3.48-2.52q-15.9-15.84-31.76-31.75a14,14,0,0,0-4.35-3.32A90.63,90.63,0,0,0,223.66,398.76Z"/><path class="cls-14" d="M112.68,436.31a13.7,13.7,0,0,1,4.35,3.32q17.94,18,35.92,35.93c1,.95,2,1.81,3,2.71v10.32a13.49,13.49,0,0,1-4.36-3.32q-17.69-17.73-35.42-35.41c-1-1-1.79-2.41-3.48-2.52Z"/><path class="cls-41" d="M419.1,425.24c-2,.27-3.05-1.27-4.24-2.45l-37.59-37.58c-.95-.94-2-1.8-3-2.7,0-4.53,1.07-8.88,2.11-13.25,0,1.71-.07,3.29,1.36,4.71,9,8.93,18,17.95,27,26.91.64.63,1.24,2.18,2.58.74C411.9,409.18,414.9,417.51,419.1,425.24Z"/><path class="cls-4" d="M300.47,112a5.69,5.69,0,0,0-.73-3.52c-.79-1.77-1.35-3.92-.17-5.15a5,5,0,0,1,6-.88c-.6,1.67,1,2,1.77,2.74q15.12,15.27,30.36,30.42A12.65,12.65,0,0,1,341,140c-5.24,2.4-10.06,1-14.71-1.71-.11-.34-.12-.79-.35-1C317.53,128.77,309.32,120.07,300.47,112Z"/><path class="cls-42" d="M299,287.5l-14.74-5.16c.07-1.74-1.35-2.54-2.35-3.55q-16.65-16.69-33.31-33.36c-1.46-1.46-3.19-2.71-4.18-4.61.93-2.5,3.19-3.58,5.24-4.88.05,1.55,1.31,2.29,2.23,3.22q8.49,8.53,17,17,13.88,13.89,27.74,27.77C297.65,285,299.05,285.77,299,287.5Z"/><path class="cls-43" d="M156,440Q136.49,420.64,117,401.31a13.42,13.42,0,0,0-4.35-3.31l-.12-1.53c0-2,0-3.92,0-5.87,0-.91-.5-2.18.72-2.58.88-.28,1.45.74,2,1.32,3.21,3.19,6.39,6.41,9.61,9.59q15.49,15.38,31,30.72Z"/><path class="cls-7" d="M238.6,142.36c12.6.14,21.84,8.77,24.22,20.16.49,2.35,1.13,2.63,3,1.49s3.47-2.11,5.2-3.16c.82,2.84,3.8,3.93,5.16,6.34-1.35,1.43-3.36,2.28-4.25,4.66l7.2-.75c.08,1.53,1.33,2.27,2.24,3.19,3.77,3.81,7.59,7.56,11.33,11.4.56.58,1.86.91,1.22,2.21-3.69-.76-7.39-1.38-11.1-.13-.12-1.68-1.53-2.45-2.53-3.46Q259.46,163.31,238.6,142.36Z"/><path class="cls-44" d="M156,429.65q-15.5-15.36-31-30.72c-3.22-3.18-6.4-6.4-9.61-9.59-.59-.58-1.16-1.6-2-1.32-1.22.4-.69,1.67-.72,2.58-.07,1.95,0,3.91,0,5.87-1.11-1.56-.42-3.33-.55-5-.35-4.49-.61-9-.91-13.46.05-.74.31-1.14,1.15-.82a9.54,9.54,0,0,1,3.09,2.55c11.55,11.53,22.85,23.32,34.74,34.49C154.85,418.72,157.08,423.33,156,429.65Z"/><path class="cls-18" d="M299,287.5c.07-1.73-1.33-2.53-2.34-3.53Q282.8,270.06,268.9,256.2q-8.52-8.52-17-17c-.92-.93-2.18-1.67-2.23-3.22,6.56-4.77,14.17-5.28,20-1.15-1.18,1-2.33,1.83-3.43,2.77-5.31,4.52-4.3,11.49,2.07,14.29,1.89.83,3.81,1.59,5.72,2.38a3.07,3.07,0,0,0,.31.66c5.93,7.66,13.43,13.81,20.06,20.79,1.16,1.22,1.62-.18,2.27-.74-.41,1.58.79,2.15,1.79,2.85-1,1.65.5,2.39,1.31,3.27,1.74,1.88,3.71,3.55,5.39,5.49s4.43,3.17,5,6.11C306.29,291.08,302.41,289.78,299,287.5Z"/><path class="cls-45" d="M573.88,435.6c-.12,1,.25,2.63-1.68,1.47a9.11,9.11,0,0,1-1.6-1.51q-16.94-16.92-33.84-33.85c-.69-.69-1.27-1.48-1.9-2.23.4-3.08,2.07-5.58,3.68-8.11,0,1.26.88,1.95,1.65,2.72l29.48,29.49c.77.77,1.47,1.66,2.72,1.66C573.63,428.59,573,432.2,573.88,435.6Z"/><path class="cls-46" d="M238.6,142.36q20.84,21,41.66,41.95c1,1,2.41,1.78,2.53,3.46l-4.23,3.16a4,4,0,0,1-.95-.53q-23.19-23.24-46.36-46.49Z"/><path class="cls-47" d="M565.54,230.61a33.88,33.88,0,0,1-3.62,9.63c-4.84-2.75-7.88-7.45-11.95-11-1.62-1.44-2.94-3.28-5.27-3.7A20,20,0,0,0,532,216c-2.24-.55-2.29-1-.78-2.62,4.18-4.57,9.61-5.73,15.4-6.11-2.92.66-3,1.67-.85,3.77C552.43,217.47,559,224.08,565.54,230.61Z"/><path class="cls-48" d="M232,417.85a14,14,0,0,1,4.35,3.32q15.85,15.9,31.76,31.75c1,1,1.79,2.42,3.48,2.52a22.58,22.58,0,0,1-3.54,7.38c-1.71,0-2.51-1.42-3.52-2.42q-15.17-15-30.28-30Z"/><path class="cls-49" d="M546.51,636.69c11.87-5.33,23.87-10.35,35.47-16.25,1.21,3.42,4.19,5.26,6.74,7.49-7.43,5-15.74,8.37-23.66,12.43-3.33,1.7-6.56,3.73-10.29,4.56C552.79,641.4,550.32,638.38,546.51,636.69Z"/><path class="cls-50" d="M482.79,204.89c1.24.08,1.89,1.06,2.65,1.82q12.74,12.71,25.45,25.45c.86.85,1.88,1.62,1.87,3-13.14,2.95-28-3.5-30-20.41A36.73,36.73,0,0,1,482.79,204.89Z"/><path class="cls-51" d="M553.39,206.34a25.93,25.93,0,0,0-13.78-15.66c-1.15-.56-2.22-1.29-3.33-1.93.09-1.57-1.13-2.32-2-3.25-2.45-2.5-5-4.89-7.36-7.48-.66-.73-2.87-2.43.54-2.6,16.32,3.42,29,11.43,33.16,28.56,1.09,4.5,4.37,7.6,5.17,12-3.43-1.93-5.94-4.92-8.69-7.63C556,207.27,555.08,206.12,553.39,206.34Z"/><path class="cls-52" d="M594.55,566.7c-2,1.54-2.55-.77-3.34-1.56-12.29-12.14-24.47-24.38-36.7-36.57-1-1-1.81-2.41-3.55-2.35a38,38,0,0,1-1.26-10.35c1.68.12,2.46,1.52,3.48,2.52q17.45,17.4,34.86,34.84a13.9,13.9,0,0,0,2.16,2c1,.63,1.23-.17,1.37-1Q593.05,560.47,594.55,566.7Z"/><path class="cls-53" d="M244.4,240.82c1,1.9,2.72,3.15,4.18,4.61q16.64,16.71,33.31,33.36c1,1,2.42,1.81,2.35,3.55-2.86-1.08-6-1-8.81-2.48.23-1.73-1-2.65-2-3.68q-17.65-17.65-35.31-35.3c-.93-.93-1.7-2.16-3.29-2.08a66.26,66.26,0,0,1,.85-21.35,7.22,7.22,0,0,0,.08,1.81c.88,3,4.28,5.18,6.27,4,.09,5.35.19,10.71.26,16.07C242.27,241,242.38,242.24,244.4,240.82Z"/><path class="cls-54" d="M529.64,655c-9,3.88-18.73,5.78-28,8.94a7.45,7.45,0,0,1-2.17.05c-1.23-3.47-4.48-5.2-6.76-7.76-1.11-1.24-1.48-2.08.09-3.06l28.83-7.54C524,649,527.8,651.14,529.64,655Z"/><path class="cls-55" d="M374.8,518.82c.21,6-2.16,11.69-2.21,17.66-7.24-5.19-12.89-12-19-18.35A93.86,93.86,0,0,1,356.51,499c-.28,1.88.57,3.19,1.88,4.47,4.28,4.16,8.44,8.44,12.7,12.61C372.18,517.14,373,518.67,374.8,518.82Z"/><path class="cls-56" d="M317.4,153.3c15.65,2.4,26.49,11.39,34.06,24.85.53.93,1.09,1.84,1.66,2.75,0,0,.23,0,.32-.07a1.32,1.32,0,0,0,.23-.28c3.67,1.52,5.5,5.12,8.45,7.46,2.07,1.64,3.24,4.38,6.12,5.06-2.15,1.82-1.14,4.38-1.55,6.62-4.94-4.85-9.86-9.72-14.83-14.54-2-1.93-3.65-4.28-6.38-5.32-.94-1.56-1.77-3.18-2.82-4.66-5.11-7.23-12.69-10.61-20.79-13.15-.92-3-3.3-5-5.4-7.11C314.81,153.22,316.25,153.35,317.4,153.3Z"/><path class="cls-57" d="M591.57,554.25c-.14.79-.39,1.59-1.37,1a13.9,13.9,0,0,1-2.16-2q-17.43-17.41-34.86-34.84c-1-1-1.8-2.4-3.48-2.52-1.28-3.32-1.16-6.85-1.47-10.32,1.67.12,2.45,1.51,3.46,2.52C563.38,519.71,575,531.4,586.75,543c.81.8,1.31,3,3.34,1.66C591.15,547.77,591,551.07,591.57,554.25Z"/><path class="cls-14" d="M231.25,143.91q23.17,23.25,46.36,46.49a4,4,0,0,0,.95.53c-1.31,1.66-1.57,4.08-3.68,5.16-1-.86-2.12-1.64-3.06-2.58q-14.54-14.49-29.06-29c-1-1-1.83-2.36-3.53-2.38.76-9.29-4.82-13.1-13.25-14.52A18.07,18.07,0,0,1,231.25,143.91Z"/><path class="cls-58" d="M552.44,536.54c1.89,0,2.71,1.53,3.8,2.61C570,552.87,584,566.44,597.38,580.49c4.16,4.35,8.38,6.27,14.11,5.3l13.26.11c-5.63,1.2-11.33.4-17,.43-3,0-5.71.52-8,2.52-1.7,0-2.5-1.41-3.51-2.42q-19.34-19.27-38.62-38.61a14.91,14.91,0,0,0-4-3.14C552.46,542.07,552.47,539.3,552.44,536.54Z"/><path class="cls-7" d="M427.26,633.17l5.95-.31c2-.24,4,.49,5.87-.53l4.51-.34c1.19,0,2.43.5,3.5-.43l14.76-2c-.81,1.18.15,1.77.82,2.44,2.07,2.08,4.25,4.06,6.19,6.26a5.82,5.82,0,0,0,5.5,2.15c-6.6,1.46-13.33,1.38-20,1.67-5.39.23-10.79.22-16.19.34a7,7,0,0,1-3.57-.64C432.77,638.37,429.58,636.15,427.26,633.17Z"/><path class="cls-22" d="M389.63,112.67c0,1.54,1.19,2.33,2.11,3.27,3.78,3.8,7.6,7.55,11.34,11.39.75.76,2.3,1.3,1.35,2.91-6.48,2.25-12.11,6.3-18.48,8.78-2.05-5-6.46-7.89-10.25-11.32A133.85,133.85,0,0,0,389.63,112.67Z"/><path class="cls-59" d="M347.19,558.63c.66-2.67-.16-5.58,1.32-8.11,1.53.05,2.26,1.3,3.19,2.22,4.73,4.69,9.43,9.43,14.16,14.13.93.92,1.7,2.12,3.26,2.06.3,1-.25,2.1.65,2.91.31,3.46,2.9,4.86,5.63,5.95a36.21,36.21,0,0,0,13.47,2.26c2.2,0,5.56-.52,5.75,2.52.22,3.61-3.38,3.08-5.73,3.25-3.16.23-6.34,0-9.51,0a3.86,3.86,0,0,0-3.91,0c-2.1-.56-4.36.45-6.4-.69,1.35-.29,3.35.82,3.93-.82.42-1.21-1.42-2.1-2.34-3q-10.11-10.18-20.3-20.3C349.43,560.06,348.7,558.79,347.19,558.63Z"/><path class="cls-8" d="M378.59,490.77q-.88,7.05-1.78,14.11c-1.65.92-2.12-.73-2.86-1.45-3.84-3.72-7.55-7.58-11.39-11.29-1.36-1.31-2.32-3.2-4.47-3.53a79.42,79.42,0,0,1,2.42-16.31c1.29-2,2-.11,2.62.52,4.37,4.25,8.49,8.77,13.05,12.79C378,487.17,378.9,488.52,378.59,490.77Z"/><path class="cls-42" d="M353.57,518.13c6.13,6.33,11.78,13.16,19,18.35q-1.11,8.12-2.21,16.24c-1.55-.06-2.29-1.32-3.21-2.24-4.61-4.56-9.07-9.27-13.83-13.66-1.54-1.42-2.22-2.74-2-4.68C351.89,527.44,352,522.67,353.57,518.13Z"/><path class="cls-60" d="M231.19,205.66c-.24,1.11.72,2.76-.78,3.24-1.08.34-1.78-1.1-2.53-1.85q-14.34-14.3-28.6-28.67c-.61-.62-3.32-1.47-.55-3C216.5,177.77,229,189.42,231.19,205.66Z"/><path class="cls-16" d="M351.35,532.14c-.23,1.94.45,3.26,2,4.68,4.76,4.39,9.22,9.1,13.83,13.66.92.92,1.66,2.18,3.21,2.24a41.82,41.82,0,0,0-.64,9.54c-1.12,2.14-.13,4.48-.62,6.67-1.56.06-2.33-1.14-3.26-2.06-4.73-4.7-9.43-9.44-14.16-14.13-.93-.92-1.66-2.17-3.19-2.22A128.14,128.14,0,0,1,351.35,532.14Z"/><path class="cls-61" d="M239.23,162.1c1.7,0,2.52,1.38,3.53,2.39q14.55,14.5,29.06,29c.94.94,2,1.72,3.06,2.58a11.83,11.83,0,0,1-8.3,4.91c1.1-1.32.23-2.18-.69-3.09q-13.51-13.49-27-27a3.69,3.69,0,0,0-3.21-1.38Z"/><path class="cls-62" d="M572.39,425.24c-1.25,0-1.95-.89-2.72-1.66l-29.48-29.49c-.77-.77-1.68-1.46-1.65-2.72a23.61,23.61,0,0,1,2.86-6c2.28.8,3.76,2.62,5.39,4.25,6.9,6.89,13.76,13.8,20.71,20.63.6.59,1.54,3.18,2.69.27Z"/><path class="cls-3" d="M504.65,461.38a127.21,127.21,0,0,1,7.62-15.5c1.75-.24,2.62,1.07,3.66,2.08l10.82,10.44q-3.82,8.1-7.66,16.19C513.52,471,509.82,465.39,504.65,461.38Z"/><path class="cls-35" d="M156,390.56c-1.11.05-1.77-.71-2.46-1.4Q139.39,375,125.3,360.88c-.59-.6-3.18-1.54-.26-2.7l11.11.11a4.71,4.71,0,0,0,.7,1.61q9.56,9.48,19.17,18.9Z"/><path class="cls-11" d="M408.21,672.4l-2.35-.4c-.05-1.55-1.31-2.28-2.23-3.21-4.89-4.93-9.82-9.82-14.71-14.75-.92-.93-2.16-1.68-2.21-3.22,8.23,2.39,16.64,4,25,5.83-.83.07-2-.34-2.41.43-.67,1.12.6,1.69,1.21,2.34,1.6,1.68,3.59,3.09,4.86,5,5.26,7.83,12.67,9.78,21.46,8.37l2.9.07c-1,1-2.32.56-3.5.57-7.91.09-15.81.08-23.7-.57C411.18,671.85,409.67,672.38,408.21,672.4Z"/><path class="cls-41" d="M594.61,592.68l-5.17,3.69a6.71,6.71,0,0,0-.79-1.22q-15-15-30-30a3.16,3.16,0,0,0-2.51-1.29,48.84,48.84,0,0,1-1.27-10.35c1.67.11,2.45,1.5,3.46,2.51q15.2,15.12,30.31,30.31C590.69,588.35,593.05,590.15,594.61,592.68Z"/><path class="cls-37" d="M212.17,210.77c2.93.95,4.33,3.72,6.52,5.55,3.21,2.69,5.46,6.44,9.31,8.43-3.76,5.38-8.56,9.21-15.25,10.22-3.1-3.25-6.37-6.36-9.21-9.82a4.2,4.2,0,0,0-4-1.83A17.88,17.88,0,0,0,212.17,210.77Z"/><path class="cls-63" d="M556.13,563.81a3.16,3.16,0,0,1,2.51,1.29q15,15,30,30a6.71,6.71,0,0,1,.79,1.22c-1.85,2-4.42,3-6.63,4.42-8.16-9.06-17-17.48-25.74-25.94Q556.59,569.33,556.13,563.81Z"/><path class="cls-64" d="M372.75,666.19c.48-2.08-1.24-3-2.35-4.09q-18.58-18.68-37.23-37.29c-1-1-2.4-1.81-2.49-3.5,7.82,5.87,16.06,11.1,24.34,16.29,0,1.39,1.14,2.1,2,2.95,3,3,6,6.05,9.06,9.07,5.35,5.35,10.73,10.68,16,16.1.59.6,3.18,1.54.25,2.69A21.78,21.78,0,0,1,372.75,666.19Z"/><path class="cls-65" d="M407.36,401.62c-1.34,1.44-1.94-.11-2.58-.74-9-9-18-18-27-26.91-1.43-1.42-1.39-3-1.36-4.71a12.42,12.42,0,0,1,1.47-7.36c5.55,6.34,11.8,12,17.74,17.94.31.3.91.3,1.37.44C400.9,387.18,404,394.45,407.36,401.62Z"/><path class="cls-66" d="M594.61,592.68c-1.56-2.53-3.92-4.33-6-6.4Q573.52,571.07,558.32,556c-1-1-1.79-2.4-3.46-2.51-1.26-2.81-.94-5.84-1.29-8.78a14.91,14.91,0,0,1,4,3.14q19.27,19.32,38.62,38.61c1,1,1.81,2.39,3.51,2.42A21.29,21.29,0,0,1,594.61,592.68Z"/><path class="cls-57" d="M529.64,655c-1.84-3.84-5.69-6-8-9.37l24.89-8.92c3.81,1.69,6.28,4.71,8.26,8.23A209.66,209.66,0,0,1,529.64,655Z"/><path class="cls-67" d="M341,140a12.65,12.65,0,0,0-3.27-4.37q-15.21-15.18-30.36-30.42c-.73-.74-2.37-1.07-1.77-2.74,8.08.58,14,5,19.07,10.84,3.65,4.22,7.08,8.62,11.12,12.52,2.38,2.3,5.19,3.49,8.13,4.64-2.09.41-1.08,1.33-.34,2.16,1.34,1.5,2.72,3,4.08,4.48A22.56,22.56,0,0,1,341,140Z"/><path class="cls-68" d="M568.69,268.81c-6.5,7-13.85,12.78-22.77,16.41-3.89-1.59-6-5.19-8.82-7.94,7.06-3.35,14.27-6.41,20.57-11.18,1.42-1.07,2.62-2.55,4.48-3C565.19,264,566.64,266.77,568.69,268.81Z"/><path class="cls-47" d="M570.19,410.55c-1.15,2.91-2.09.32-2.69-.27-7-6.83-13.81-13.74-20.71-20.63-1.63-1.63-3.11-3.45-5.39-4.25,1.07-3.35,2.94-6.31,4.53-9.41,0,.24,0,.55.13.7q10.4,11.46,21.85,21.86c.15.14.47.1.71.14Q569.4,404.62,570.19,410.55Z"/><path class="cls-5" d="M264.41,468.79c-.53,2.45-2.89,3.68-3.9,5.8-1.54-.09-2.27-1.35-3.2-2.28-5.81-5.77-11.4-11.78-17.46-17.29-3.73-3.39-5.84-7-4.95-12.07l0-3c.56.2,1.28.25,1.67.63C245.84,450,255.52,459,264.41,468.79Z"/><path class="cls-69" d="M568.62,398.69c-.24,0-.56,0-.71-.14q-11.43-10.41-21.85-21.86c-.14-.15-.09-.46-.13-.7a47.94,47.94,0,0,1,5.14-10.4c0,1.68,1.38,2.53,2.43,3.45,4.14,3.65,7.2,8.48,12.17,11.23.78,5,1.61,10,2.29,14.94A10.09,10.09,0,0,0,568.62,398.69Z"/><path class="cls-15" d="M109.52,613.86a3.2,3.2,0,0,1,2.24,1.08q7.86,7.88,15.76,15.74c1,1,1.56,1.91-.1,2.77-7.85.32-15.69,1.12-23.56.72l3.49-.8c-2.4-3-3.95-6.3-8-6.93C106.19,625,107.75,619.36,109.52,613.86Z"/><path class="cls-15" d="M526.75,458.4,515.93,448c-1-1-1.91-2.32-3.66-2.08a71.91,71.91,0,0,1,6.32-13.29c.89-.39,1.73-.9,2.64,0q6,6.24,12.12,12.44C531.19,449.53,529.54,454.25,526.75,458.4Z"/><path class="cls-44" d="M557.07,574.85c8.77,8.46,17.58,16.88,25.74,25.94a28.15,28.15,0,0,1-6.74,4.24c-.56-.21-1.27-.27-1.66-.66Q564.18,594.08,554,583.71C555.52,580.93,557.09,578.16,557.07,574.85Z"/><path class="cls-68" d="M402.24,152.57c5.13-.26,6.41,4.15,8.78,7.23-1.33,0-2.67.06-4,.12-11.79.53-22.83,3.26-32.13,11-2.2-.36-3.22-2.12-4.4-3.69,2.18-3.58,5.65-5.67,9-7.82C386.46,155.06,394.13,153.08,402.24,152.57Z"/><path class="cls-70" d="M257.83,540.91a24.46,24.46,0,0,1-5.74-4.49Q234,518.19,215.73,500.05c-1.09-1.09-2-2.58-3.8-2.64l5.32-4.37c5.31,3.14,9,8,13,12.47l26.06,32.94C256.94,539.21,257.76,539.83,257.83,540.91Z"/><path class="cls-71" d="M358.09,488.61c2.15.33,3.11,2.22,4.47,3.53,3.84,3.71,7.55,7.57,11.39,11.29.74.72,1.21,2.37,2.86,1.45l-2,13.94c-1.81-.15-2.62-1.68-3.71-2.76-4.26-4.17-8.42-8.45-12.7-12.61-1.31-1.28-2.16-2.59-1.88-4.47C356.51,495.44,356.7,491.93,358.09,488.61Z"/><path class="cls-49" d="M487,274.77l6.59.11c-5.17,1.15-10.43.61-15.6.39-3.89-.17-7.78-.23-11.67-.5a13.28,13.28,0,0,0-3-4.06c-6.13-6.12-12.21-12.26-18.31-18.4a12.32,12.32,0,0,0,5.91-5.38c7.37,7.49,15,14.71,22,22.56C476.87,274,481.23,275.74,487,274.77Z"/><path class="cls-8" d="M520.09,630.65a92.34,92.34,0,0,1-14,3.86c-5.31-3.25-9.15-8-13.12-12.65-.19-.22-.06-.7-.08-1.06a120.5,120.5,0,0,1,13.29-5.41c2.6,2.73,5.28,5.39,7.78,8.21C516,625.93,518.92,627.53,520.09,630.65Z"/><path class="cls-72" d="M234.9,443c-.89,5.07,1.22,8.68,4.95,12.07,6.06,5.51,11.65,11.52,17.46,17.29.93.93,1.66,2.19,3.2,2.28-1.66,2.42-3.17,5-5.64,6.69q-11.24-10.21-21.46-21.45Q234.16,451.4,234.9,443Z"/><path class="cls-73" d="M474.36,640.41a5.82,5.82,0,0,1-5.5-2.15c-1.94-2.2-4.12-4.18-6.19-6.26-.67-.67-1.63-1.26-.82-2.44l18.46-4.42a44.6,44.6,0,0,0,12.47,12.32C486.78,639.31,480.56,639.8,474.36,640.41Z"/><path class="cls-15" d="M168.37,237.27c-6.23-4.21-10.7-10.3-16.23-15.26-1.39-1.25-2.29-3.31-4.67-3.12.37-4,1.27-7.8,4.8-10.36a6.08,6.08,0,0,1,1.95.86c5.06,5.1,10.07,10.26,15.1,15.41C167.94,228.87,168.36,233.09,168.37,237.27Z"/><path class="cls-74" d="M300.47,112c8.85,8.06,17.06,16.76,25.47,25.25.23.23.24.68.35,1-2.49-.28-4.35-1.87-6.42-3.05a52.89,52.89,0,0,0-17.94-6.45c-1.29-2.88-3.95-4.57-5.9-6.88-1.7-2-4.3-3.25-5.11-6,2.09-1.5,4.64-1.69,7-2.24A4.66,4.66,0,0,0,300.47,112Z"/><path class="cls-46" d="M347.19,558.63c1.51.16,2.24,1.43,3.17,2.36q10.18,10.11,20.3,20.3c.92.93,2.76,1.82,2.34,3-.58,1.64-2.58.53-3.93.82l-8.19-.11a70.32,70.32,0,0,0-16.26-16.13Q345.91,563.77,347.19,558.63Z"/><path class="cls-75" d="M527.52,258.7c5.91-3.74,11.6-7.67,15.28-13.93,1-1.69,1.11-3.7,2.38-5.21a70.88,70.88,0,0,0,9.64,9.57c-1.85,3.39-5.2,5.2-8,7.58a54.14,54.14,0,0,1-13.46,8.41C532.25,262.21,529.69,260.63,527.52,258.7Z"/><path class="cls-71" d="M378.59,490.77c.31-2.25-.63-3.6-2.41-5.16-4.56-4-8.68-8.54-13.05-12.79-.65-.63-1.33-2.56-2.62-.52a81.27,81.27,0,0,1,2.07-13.89c1.79.18,2.54,1.76,3.7,2.79,4.91,4.34,8.74,9.86,14.41,13.39Z"/><path class="cls-76" d="M551.77,618.17a53.67,53.67,0,0,1-9.63,4.32L525.25,605c2.75-2.3,5.51-4.59,9-5.82,5,5.16,10.06,10.3,15.06,15.49C550.25,615.73,551.67,616.48,551.77,618.17Z"/><path class="cls-11" d="M554,583.71q10.18,10.35,20.39,20.66c.39.39,1.1.45,1.66.66a38.79,38.79,0,0,1-8.84,5.06c-5.83-5.93-11.68-11.85-17.49-17.8-1-1-2.37-1.84-2.4-3.53C549.86,587.47,551.13,584.51,554,583.71Z"/><path class="cls-5" d="M458.88,276.35c-3.3,1.41-6.81,1.4-10.31,1.47-1.69.24-2.69-.86-3.74-1.91-5.09-5.12-10.21-10.2-15.29-15.33-.92-.93-2.19-1.66-2.29-3.19,3.18-.81,6.2-2.31,9.58-2.28q10.05,10.18,20.11,20.35A2.78,2.78,0,0,0,458.88,276.35Z"/><path class="cls-15" d="M138.39,301.4c-7.14-2.4-13.15-6.78-19.2-11a87.76,87.76,0,0,1-25.47-27.78,190.5,190.5,0,0,0,30.64,22.62c0,1.57,1.23,2.33,2.15,3.27,3.54,3.57,7.14,7.1,10.64,10.71C137.72,299.75,139,300.08,138.39,301.4Z"/><path class="cls-77" d="M480.92,179.05a12.47,12.47,0,0,1-3.82-2.78q-9.83-9.9-19.72-19.73c-1.12-1.13-2.4-2.16-2.14-4a38.2,38.2,0,0,1,5.92-5.8,49.11,49.11,0,0,0,13.13,13.17c.85,5.94,5.26,10.49,6.4,16.33A9.07,9.07,0,0,1,480.92,179.05Z"/><path class="cls-78" d="M135.29,243.93a96.62,96.62,0,0,0,21.48,23c.12,1.52,1.37,2.26,2.3,3.19,5.51,5.55,11.07,11,16.54,16.64.4.41,2.47,1,.37,2.08-3-.29-5.25-2.5-8.11-3.13,1-1.83-.82-2.36-1.64-3.19-7.14-7.24-14.35-14.41-21.54-21.6-3.47-3.47-6.92-6.95-10.43-10.38-.44-.42-1.25-2.24-1.82,0-1.81-3.57-3.72-7.1-4.39-11.12.44-2.13,1.38-1.06,2.2-.31C132,240.73,133.61,242.34,135.29,243.93Z"/><path class="cls-43" d="M382.33,668.41c2.93-1.15.34-2.09-.25-2.69-5.29-5.42-10.67-10.75-16-16.1-3-3-6.06-6-9.06-9.07-.84-.85-1.94-1.56-2-2.95l17,8a12.35,12.35,0,0,0,3,4.1q9.11,9,18.12,18.17c.72.73,2.37,1.06,1.76,2.72C390.54,670.7,386.43,669.58,382.33,668.41Z"/><path class="cls-75" d="M525.25,605l16.89,17.46-11,4.42C525.85,621.47,520.67,616,515,611A41.23,41.23,0,0,1,525.25,605Z"/><path class="cls-79" d="M427.25,257.39c.1,1.53,1.37,2.26,2.29,3.19,5.08,5.13,10.2,10.21,15.29,15.33,1.05,1,2.05,2.15,3.74,1.91A72.49,72.49,0,0,1,436.78,280c-.56-.21-1.27-.27-1.65-.66-5.6-5.63-11.15-11.3-16.72-17C420.69,259.55,423.9,258.34,427.25,257.39Z"/><path class="cls-74" d="M264.41,468.79c-8.89-9.79-18.57-18.8-27.87-28.19-.39-.38-1.11-.43-1.67-.63-.2-3.2-.39-6.39-.59-9.59q15.14,15,30.28,30c1,1,1.81,2.39,3.52,2.42Z"/><path class="cls-6" d="M169.32,224.8c-5-5.15-10-10.31-15.1-15.41a6.08,6.08,0,0,0-1.95-.86c.23-4.48,1-8.8,3.81-12.48A28.06,28.06,0,0,1,162,202a27.17,27.17,0,0,1-1.6,3.93c-1.42,2.41.41,1.88,1.63,2,1.2-.15,2.51.39,3.58-.55h1.52c-.18,1.53.81,2.44,1.76,3.41,2.37,2.42,4.71,4.88,7.07,7.33C172.69,219.29,171.23,222.27,169.32,224.8Z"/><path class="cls-4" d="M380.69,474.59c-5.67-3.53-9.5-9-14.41-13.39-1.16-1-1.91-2.61-3.7-2.79q.71-5.9,1.4-11.8c1.89-.28,2.83,1.12,3.94,2.21l14.33,14C381.71,466.73,381.89,470.75,380.69,474.59Z"/><path class="cls-80" d="M195.81,357.44l-3.64.1c-2.32,0-4.64-.1-6.95-.08-.8,0-1.91-.39-2.25.66s.68,1.47,1.25,2.05q8,8.06,16.06,16.05a10.27,10.27,0,0,1,2.89,4.15c-5.55-2-11-4.25-16.91-5.34-1.23-3.36-4.45-5-6.58-7.58-2.83-3.42-6.88-5.75-8.89-9.9l3.73-.32c1.28-.1,2.62.23,3.82-.47,4.65.05,9.29.07,13.94.17C193.46,357,194.74,356.53,195.81,357.44Z"/><path class="cls-81" d="M458.88,276.35a2.78,2.78,0,0,1-1.94-.89q-10.05-10.17-20.11-20.35l8.11-2.8c6.1,6.14,12.18,12.28,18.31,18.4a13.28,13.28,0,0,1,3,4.06A31.2,31.2,0,0,1,458.88,276.35Z"/><path class="cls-82" d="M553.39,206.34c1.69-.22,2.63.93,3.67,2,2.75,2.71,5.26,5.7,8.69,7.63,1.71,4.92.57,9.8-.21,14.68-6.59-6.53-13.11-13.14-19.81-19.55-2.19-2.1-2.07-3.11.85-3.77a13.46,13.46,0,0,1,5.64.47C553.62,208.1,553.86,207.53,553.39,206.34Z"/><path class="cls-68" d="M460.45,302l-15.56,1.63q-4-4.34-8-8.69c6.29-1.77,12.6-3.44,19.17-3.79a2.58,2.58,0,0,1,2,.59q4.47,4.8,9,9.59l-2.23.1C463.34,301.59,461.78,300.92,460.45,302Z"/><path class="cls-83" d="M368.24,193.07c-2.88-.68-4.05-3.42-6.12-5.06-2.95-2.34-4.78-5.94-8.45-7.46.39-7.1-.56-14.25.62-21.34.34,3.61-1.27,7.72,2.68,10.41.58.39,1,1.25,1.82.94s.61-1.23.61-1.92c0-5.38,0-10.76-.07-16.14,0-4.26,0-8.51.1-12.76,0-1.16-.46-2.47.75-3.38-.36,14.13-.22,28.26.05,42.39a3.52,3.52,0,0,0,.4,1c1.66-.37,1.38-2.24,2.49-2.91,1,2.26,2,4.48,5,4.44-1,3.23-1,5.88,3.16,6.86a5.19,5.19,0,0,1,3.18,2.85c.38.75,1.15,1.56.71,2.32-.52.91-1.49.35-2.28.06A8.49,8.49,0,0,0,368.24,193.07Z"/><path class="cls-46" d="M351.46,327.21c4.21,2.09,6.58,6.22,10.1,9.06.83.68,1.3,2.69,3.05,1.24,4.88,5.73,4.34,11.08-1.41,14.06a156.2,156.2,0,0,1-14-13.93Z"/><path class="cls-84" d="M475.26,521.78c1.95-3.68,3.32-7.65,5.71-11.1,1.35,1.22,2.68,2.45,4.06,3.65,3.38,2.93,5.83,6.92,10,8.92q-3,6.24-5.93,12.48A54.42,54.42,0,0,0,475.26,521.78Z"/><path class="cls-74" d="M181.85,176.32c2.06,4.85,5.83,8.07,10.24,10.67a34.62,34.62,0,0,0-23.54,6.64c-.66-3.17-4.7-3.95-5.17-7.26A39.15,39.15,0,0,1,181.85,176.32Z"/><path class="cls-44" d="M394.86,670.61c.61-1.66-1-2-1.76-2.72q-9-9.17-18.12-18.17a12.35,12.35,0,0,1-3-4.1l14.73,5.2c.05,1.54,1.29,2.29,2.21,3.22,4.89,4.93,9.82,9.82,14.71,14.75.92.93,2.18,1.66,2.23,3.21l-1.5.13c-1.07-1-2.37-.47-3.58-.57C398.84,671,396.7,671.72,394.86,670.61Z"/><path class="cls-13" d="M243.78,493.1c-2.25,2.94-5.26,5-8.08,7.34a118.68,118.68,0,0,1-13.23-13.3q2.86-4.84,5.75-9.69A185.32,185.32,0,0,0,243.78,493.1Z"/><path class="cls-44" d="M436.84,672.77c-8.79,1.41-16.2-.54-21.46-8.37-1.27-1.89-3.26-3.3-4.86-5-.61-.65-1.88-1.22-1.21-2.34.45-.77,1.58-.36,2.41-.43a69.16,69.16,0,0,1,12.58,1.58c1.17,3.3,4.38,4.84,6.4,7.39S435.76,669.56,436.84,672.77Z"/><path class="cls-85" d="M154,357.49l7.14.13c-.48,1-2,0-2.39,1.23,4.41,5.14,9.84,9.26,13.92,14.66.79,1,2,.76,3.06.87,2.77.27,5.62-.68,8.32.57l-20,.15c-.6-.08-1.42.07-1.76-.27-5.45-5.36-11.53-10.13-15.83-16.58l-.06-.26C149,357.74,151.54,358.46,154,357.49Z"/><path class="cls-71" d="M515,611c5.68,5,10.86,10.5,16.1,15.94-3.65,1.31-7.18,2.94-11,3.74-1.17-3.12-4.1-4.72-6.17-7-2.5-2.82-5.18-5.48-7.78-8.21C509,613.79,511.7,611.77,515,611Z"/><path class="cls-22" d="M206.94,273.4c.63-.26,2.4.64,1.22-1.39s-2.95-3.44-4.46-5.13c-1-1.13-2.56-1.89-2.71-3.66l13.33,1.54a8.38,8.38,0,0,0,6.52,0l2.28-.08c2.06,3.86,5.87,6.31,8.76,10.19H219.45A44.74,44.74,0,0,1,206.94,273.4Z"/><path class="cls-68" d="M252.54,290.38c6.32.06,12.3,2.13,18.48,3.05,1.23,2.9,3.89,4.57,5.83,6.86,1.53,1.81,3.95,2.9,4.48,5.51L262.87,303c-2.95-4-6.93-7.09-10.24-10.78C252.25,291.78,250.25,291.08,252.54,290.38Z"/><path class="cls-86" d="M463.31,309.72a122.49,122.49,0,0,1,14.83-.91c5.26,1.63,7.91,6.11,11,10.11l-16.23.17c-3.33.41-6.21-.16-8.14-3.31a9.09,9.09,0,0,0-2.3-2.33C460,311.53,460.53,310.39,463.31,309.72Z"/><path class="cls-12" d="M492.78,637.46a44.6,44.6,0,0,1-12.47-12.32l12.54-4.34c0,.36-.11.84.08,1.06,4,4.64,7.81,9.4,13.12,12.65A60.35,60.35,0,0,1,492.78,637.46Z"/><path class="cls-87" d="M243.78,493.1a186.7,186.7,0,0,1-15.56-15.64c1-2.92,2.05-5.84,3.07-8.75,6.34,6,12.61,12,18.38,18.5A39,39,0,0,1,243.78,493.1Z"/><path class="cls-57" d="M527.52,258.7c2.17,1.93,4.73,3.51,5.83,6.42-7.06,3.4-14.28,6.31-22.1,7.43-1.28-3.41-4.76-5-6.58-7.95A110,110,0,0,0,527.52,258.7Z"/><path class="cls-68" d="M132.44,250.6c.57-2.26,1.38-.44,1.82,0,3.51,3.43,7,6.91,10.43,10.38,7.19,7.19,14.4,14.36,21.54,21.6.82.83,2.6,1.36,1.64,3.19C152.26,277.86,139.7,266.9,132.44,250.6Z"/><path class="cls-88" d="M184.05,375c-2.7-1.25-5.55-.3-8.32-.57-1.09-.11-2.27.17-3.06-.87-4.08-5.4-9.51-9.52-13.92-14.66.41-1.22,1.91-.26,2.39-1.23l9.65-.07c2,4.15,6.06,6.48,8.89,9.9,2.13,2.58,5.35,4.22,6.58,7.58Z"/><path class="cls-89" d="M249.67,487.21c-5.77-6.52-12-12.55-18.38-18.5.71-3,1.41-5.92,2.12-8.88q10.25,11.21,21.46,21.45C253.88,483.91,251.55,485.36,249.67,487.21Z"/><path class="cls-90" d="M429.41,306.55A104.25,104.25,0,0,0,403.7,317,11.09,11.09,0,0,0,400,313.2c4.83-5.17,10.88-8.58,17.13-11.67a55.73,55.73,0,0,1,5.76-2.13C424.22,302.52,427,304.4,429.41,306.55Z"/><path class="cls-40" d="M568.69,268.81c-2.05-2-3.5-4.78-6.54-5.7a134.48,134.48,0,0,0,17.63-21.41c.16,2.23,2,2.81,3.58,3.68-1.45,6.46-5.43,11.6-9.09,16.85C572.65,264.57,571.3,267.26,568.69,268.81Z"/><path class="cls-9" d="M581.94,298.23c-5.56,2.6-11.12,5.17-16.64,7.84a6.51,6.51,0,0,1-2.45.53c-1.73-3.14-5.61-4.53-6.67-8.21,6.69-2.26,13.48-4.24,20-7.09C577.36,294.21,580.15,295.8,581.94,298.23Z"/><path class="cls-91" d="M554.82,249.13a70.88,70.88,0,0,1-9.64-9.57c.56-4.71,1.34-9.43-.48-14.06,2.33.42,3.65,2.26,5.27,3.7,4.07,3.59,7.11,8.29,11.95,11A26.23,26.23,0,0,1,554.82,249.13Z"/><path class="cls-74" d="M170,312.35a70.62,70.62,0,0,1-17.63-5.06c-.05-2.22-2.16-2.87-3.27-4.27-2.91-3.66-7.3-6-9.3-10.46l17.68,5.95c1,1.09,2,2.17,2.94,3.27C163.58,305.35,167.72,308,170,312.35Z"/><path class="cls-24" d="M551.77,618.17c-.1-1.69-1.52-2.44-2.51-3.47-5-5.19-10-10.33-15.06-15.49,1.25-1.9,3.24-2.77,5.18-3.7.54.21,1.24.28,1.62.67,6.07,6.09,12.09,12.23,18.13,18.36C557,616.35,554.27,617,551.77,618.17Z"/><path class="cls-92" d="M527.42,175.42c-3.41.17-1.2,1.87-.54,2.6,2.35,2.59,4.91,5,7.36,7.48.91.93,2.13,1.68,2,3.25-2.68-.52-5.21-1.81-8-1.57a7.89,7.89,0,0,0-5.89,0l-3-.05c-1-1.16-2.11-2.3-3.11-3.5-2.06-2.49-5.11-4.1-6.4-7.25l5.25-1.35c1.19,0,2.43.46,3.51-.42C521.53,174.77,524.54,174.32,527.42,175.42Z"/><path class="cls-35" d="M436.84,672.77c-1.08-3.21-4.19-4.68-6.14-7.15s-5.23-4.09-6.4-7.39a73.16,73.16,0,0,1,14,.74c2.83,5.13,8,8.19,11.49,12.71.37.48,1.6.29,2.43.42-4.11,1.23-8.34.55-12.51.74Z"/><path class="cls-64" d="M146.51,358.25c4.3,6.45,10.38,11.22,15.83,16.58.34.34,1.16.19,1.76.27-2.47,1.32-6.16.16-7.56,3.68l-.52,0q-9.59-9.44-19.17-18.9a4.71,4.71,0,0,1-.7-1.61Z"/><path class="cls-93" d="M492.79,653.15c-1.57,1-1.2,1.82-.09,3.06,2.28,2.56,5.53,4.29,6.76,7.76a44.66,44.66,0,0,1-12.57,3c-3.3-1.05-4.87-4.13-7.24-6.25-1.37-1.21-3.26-2.26-3-4.6Z"/><path class="cls-94" d="M509.81,176.41c1.29,3.15,4.34,4.76,6.4,7.25,1,1.2,2.07,2.34,3.11,3.5-3.83,1.41-7.77,2.6-11.05,5.17-4.63-2.43-7.57-6.65-11-10.32C500.87,178.89,505.24,177.44,509.81,176.41Z"/><path class="cls-95" d="M199.57,223.32a4.2,4.2,0,0,1,4,1.83c2.84,3.46,6.11,6.57,9.21,9.82-9.59,3-21.53-.86-24.81-12.27A34.84,34.84,0,0,0,199.57,223.32Z"/><path class="cls-96" d="M565.67,380.27c-5-2.75-8-7.58-12.17-11.23-1-.92-2.39-1.77-2.43-3.45.25-2.38,1.66-4.3,2.92-6.13,2.61-3.76,6.79-3.17,8.4,1.24s1.94,9.21,2.61,13.87C565.27,376.46,565,378.42,565.67,380.27Z"/><path class="cls-90" d="M431.71,321.33l-8.86,1.27c.29-2.72-1.71-3.44-3.67-4.21,7.95-3.74,16.44-5.37,25.06-6.48,2,2.8,5.2,4.52,6.57,7.81l-5.28.45c-1.94,0-3.93-.59-5.8.39l-4.44.21C434.09,320.91,432.78,320.39,431.71,321.33Z"/><path class="cls-41" d="M452.25,672.1c-.83-.13-2.06.06-2.43-.42-3.52-4.52-8.66-7.58-11.49-12.71l17.59-.67c-4.08,1.18-4.08,1.18-1,4.24,2.14,2.15,4.35,4.24,6.42,6.47a4.61,4.61,0,0,0,4.21,1.61A55.4,55.4,0,0,1,452.25,672.1Z"/><path class="cls-97" d="M608.36,606.44c3.73-2.84,7.65-5.06,12.6-4.84,3.54.16,7.09,0,10.64,0a16,16,0,0,1,4,.52c1.45.42,2.86,1.4,2.72,3-.15,1.82-1.87,2-3.37,2.07l-9.13.52c-3.92.24-7.58,1.19-10.59,3.91C612.05,611.08,611.07,607.64,608.36,606.44Z"/><path class="cls-40" d="M293.8,323.22,282,321.33c-1.08-.92-2.39-.4-3.58-.56-3.41-.72-7,.15-10.34-.95,1.38-1.56-.47-2-1.05-2.79-1.52-2.08-4.19-3.21-4.92-5.95,9,.86,17.91,2.2,26.52,5.09-1.16.11-1.15.61-.45,1.33Z"/><path class="cls-98" d="M398.54,637.45a202.56,202.56,0,0,1-51.59-17l.75-.72a296.11,296.11,0,0,0,29.09,8.34,168.32,168.32,0,0,0,17.39,3.08C395.51,633.34,398.93,634.08,398.54,637.45Z"/><path class="cls-42" d="M235.6,253.43c0,1.7,1.39,2.52,2.4,3.54,5.6,5.64,11.24,11.25,16.86,16.88,1.26,1.27,2.2,2.48-.75,2.5s-5.87-1.46-8.9-1.58a60.05,60.05,0,0,0-13.73-13.87A13.89,13.89,0,0,1,235.6,253.43Z"/><path class="cls-99" d="M514.93,295.49a50.16,50.16,0,0,1-14,2.13l-10.26-10.83a98.8,98.8,0,0,1,14.74-2.14c.08,1.53,1.36,2.23,2.26,3.18C510,290.41,512.49,292.94,514.93,295.49Z"/><path class="cls-100" d="M382.25,462.8l-14.33-14c-1.11-1.09-2.05-2.49-3.94-2.21.52-2.48,1-4.95,1.55-7.43,1.69-2.07,2.74-.26,3.76.73,4.82,4.64,9.57,9.35,14.35,14C382.47,456.79,383.72,460,382.25,462.8Z"/><path class="cls-101" d="M429.45,131.21c-.18-2.14-1.64-3.46-3-4.89-4.12-4.34-8.78-8.16-12.46-12.92,4.39,1.18,8.92,1.84,13,4.06,5.08,2.75,8.56,6.67,10,12.31-.08,2.68.34,5.37-.27,8Z"/><path class="cls-50" d="M344.62,568.9A70.32,70.32,0,0,1,360.88,585l-1.57-.21a7.26,7.26,0,0,0-5.71.14l-8.17.07c-.1-1.69-1.6-2.37-2.49-3.49-1.18-1.49-3.23-2.35-3.43-4.58C342,574.75,343.34,571.85,344.62,568.9Z"/><path class="cls-49" d="M281.33,305.8c-.53-2.61-2.95-3.7-4.48-5.51-1.94-2.29-4.6-4-5.83-6.86a97.29,97.29,0,0,1,17.63,5.06c-.36,1.66,1.23,2.06,2,3,3.09,3.8,7.54,6.38,9.86,10.89C294.45,309.16,287.74,307.9,281.33,305.8Z"/><path class="cls-23" d="M418.41,262.4c5.57,5.67,11.12,11.34,16.72,17,.38.39,1.09.45,1.65.66A36.84,36.84,0,0,1,426.49,283c-2.9-3.18-5.49-6.7-9.38-8.82C416.21,270.08,414.64,265.94,418.41,262.4Z"/><path class="cls-102" d="M262.13,311.08c.73,2.74,3.4,3.87,4.92,5.95.58.8,2.43,1.23,1.05,2.79l-8.93-.15c-2.86-1.28-5.89-.21-8.81-.67-2.41-3.34-6.1-5.57-8.55-9.47h4.11l12.61.72c1.1.89,2.43.38,3.65.57Z"/><path class="cls-103" d="M517.93,305.12c3,.07,5.84-1.15,8.84-.63,3.16,3.15,5.71,6.91,9.5,9.44a135.79,135.79,0,0,1-16.87,2.79c.17-.45.59-1,.48-1.33-1-3.3-8.71-8.78-12.28-8.81,2.1-1.18,4.49-.36,6.68-.93C515.51,305.57,516.82,306,517.93,305.12Z"/><path class="cls-104" d="M497.24,182c3.46,3.67,6.4,7.89,11,10.32-2.24,2.79-5.09,5.16-6,8.86a42.33,42.33,0,0,1-12.43-12.61C492.2,186.25,494.06,183.39,497.24,182Z"/><path class="cls-105" d="M231.48,260.9a60.05,60.05,0,0,1,13.73,13.87c-7.41.37-14.82.87-22.25.62-1.18,0-2.45.39-3.51-.51h12.43c-2.89-3.88-6.7-6.33-8.76-10.19a31.9,31.9,0,0,1,4.31-.6C229.7,264.07,231.07,263.14,231.48,260.9Z"/><path class="cls-106" d="M366.06,62c-.07.94-.06,2.57-1.45,1.32C359.85,59,354.7,55,351.33,49.35c.78-3,2.56-5.4,4.08-8,1.24-2.1,1.85-1.66,2.95,0A50.84,50.84,0,0,1,366.06,62Z"/><path class="cls-107" d="M476.63,656.09c-.24,2.34,1.65,3.39,3,4.6,2.37,2.12,3.94,5.2,7.24,6.25a47.31,47.31,0,0,1-11.79,2.21c-.36,0-.8.1-1.07-.06-4.11-2.44-6.91-6.29-10.21-9.59-.95-1,.6-1.29,1-1.94Z"/><path class="cls-52" d="M242,223.29c-2,1.15-5.39-1-6.27-4a7.22,7.22,0,0,1-.08-1.81c.19-7,2.51-13.54,5.13-20l5.63,5.16A99.76,99.76,0,0,0,242,223.29Z"/><path class="cls-44" d="M495.06,523.25c-4.2-2-6.65-6-10-8.92-1.38-1.2-2.71-2.43-4.06-3.65a35,35,0,0,1,4.48-9.57,3.6,3.6,0,0,0,1.1,3c4,3.9,8,7.84,12.06,11.76A20.83,20.83,0,0,1,495.06,523.25Z"/><path class="cls-74" d="M166.37,272.8l16.89,6.53c-2.32.72-.26,1.44.12,1.83,3.14,3.26,6.41,6.4,9.56,9.66,1.14,1.19,2.86,2,2.87,4.05a44.8,44.8,0,0,1-11.72-3.05c.61-1.67-1.05-2-1.77-2.74C177.06,283.6,171.7,278.21,166.37,272.8Z"/><path class="cls-108" d="M99.35,626.44c4.05.63,5.6,4,8,6.93l-3.49.8c-6.31.78-12.65.34-19,.23a3.8,3.8,0,0,1-4-3.54c-.05-2.29,1.76-2.91,3.68-3.16,2.66-.37,5.4.54,8-.56C94.93,627.64,97.08,626.48,99.35,626.44Z"/><path class="cls-109" d="M296.8,302.13c8.82,3.28,15.84,9.06,21.95,16a47.31,47.31,0,0,1,8.54,14.77,2.59,2.59,0,0,1,0,2.47c-4.33-7.54-10.37-13.16-17.24-17.95a7.68,7.68,0,0,0-2.68-3.77C303.52,310.15,299.7,306.55,296.8,302.13Z"/><path class="cls-103" d="M281.36,156.26A78.42,78.42,0,0,1,310.22,152a4.25,4.25,0,0,1,1.31.53c-2.7,0-5.39.07-8.08,0-2.12-.06-2,1-1.05,2.16,1.48,1.78,3.14,3.41,4.72,5.11-7.3-.32-14.37,1.09-21.39,2.88C286,159.38,282.39,158.69,281.36,156.26Z"/><path class="cls-110" d="M246.67,301.3a71.83,71.83,0,0,1-14.7-1.36c.56-.25,2.4,0,1.33-1-4.5-4.39-8.15-9.73-13.84-12.83l16.14,2.05c-2.31.7-.3,1.43.09,1.84C239.31,293.8,243,297.54,246.67,301.3Z"/><path class="cls-111" d="M175.93,634.41c-1.18-3.66-5.38-5-6.6-8.61a106.71,106.71,0,0,0,18,1.58,29.36,29.36,0,0,1,4,.29c1.76.26,3.53.8,3.45,3a3.54,3.54,0,0,1-3.51,3.56c-3.76.24-7.55.23-11.32.28C178.61,634.54,177.27,634.45,175.93,634.41Z"/><path class="cls-55" d="M429.41,306.55c-2.44-2.15-5.19-4-6.57-7.15a53.88,53.88,0,0,1,14-4.49q4,4.35,8,8.69Z"/><path class="cls-41" d="M488.45,495.25a19.63,19.63,0,0,1,3.68-7.36L506,501.11c-.53,2.8-2.56,4.85-3.69,7.36Z"/><path class="cls-112" d="M290.92,115.89c.81,2.76,3.41,4,5.11,6,2,2.31,4.61,4,5.9,6.88l-6.67-.36c-1.2.12-2.51-.4-3.58.56l-2.29,0c-4.1-.95-6.24-4-8.1-7.43C283.84,118.52,287.25,117,290.92,115.89Z"/><path class="cls-63" d="M488.45,495.25l13.84,13.22c-.51,2.82-2.56,4.86-3.68,7.37-4-3.92-8-7.86-12.06-11.76a3.6,3.6,0,0,1-1.1-3A16.9,16.9,0,0,1,488.45,495.25Z"/><path class="cls-113" d="M450.81,319.72c-1.37-3.29-4.6-5-6.57-7.81a167.39,167.39,0,0,1,19.07-2.19c-2.78.67-3.35,1.81-.85,3.73a9.09,9.09,0,0,1,2.3,2.33c1.93,3.15,4.81,3.72,8.14,3.31-3.3,1.23-6.76,0-10.09.69a13.5,13.5,0,0,0-7.61,0Z"/><path class="cls-86" d="M174.49,302.28l13.26,2.21c3.22,3.31,6.46,6.59,9.64,9.94.67.71,2.47,1.68,0,2.45a34.9,34.9,0,0,1-11.13-1.38c.09-1.58-1.16-2.33-2.06-3.27C181,308.9,177.71,305.59,174.49,302.28Z"/><path class="cls-46" d="M139.83,292.56c2,4.47,6.39,6.8,9.3,10.46,1.11,1.4,3.22,2.05,3.27,4.27a49.24,49.24,0,0,1-14-5.89c.64-1.32-.67-1.65-1.24-2.23-3.5-3.61-7.1-7.14-10.64-10.71-.92-.94-2.17-1.7-2.15-3.27Z"/><path class="cls-114" d="M608.36,606.44c2.71,1.2,3.69,4.64,6.84,5.25a96.35,96.35,0,0,1-14,8.88,38.47,38.47,0,0,1-6.66-6.53A118.34,118.34,0,0,1,608.36,606.44Z"/><path class="cls-115" d="M383.64,454c-4.78-4.69-9.53-9.4-14.35-14-1-1-2.07-2.8-3.76-.73.27-2.95.37-5.93,1.4-8.76a12.8,12.8,0,0,1,4,3c4.47,4.42,9,8.78,13.49,13.17C384.19,449,383.91,451.5,383.64,454Z"/><path class="cls-40" d="M515.56,481.21c-.21,2.58-2.27,4.31-3,6.65-3.71-1.76-5.94-5.21-8.77-7.95-1.85-1.8-4.37-3.15-5-6a13.05,13.05,0,0,1,3-5.93Z"/><path class="cls-116" d="M594.58,614a38.47,38.47,0,0,0,6.66,6.53c-3.76,3.15-8.19,5.18-12.52,7.36-2.55-2.23-5.53-4.07-6.74-7.49Z"/><path class="cls-117" d="M464.78,657.56c-.36.65-1.91,1-1,1.94,3.3,3.3,6.1,7.15,10.21,9.59.27.16.71,0,1.07.06a29.15,29.15,0,0,1-9.58,1.47,4.61,4.61,0,0,1-4.21-1.61c-2.07-2.23-4.28-4.32-6.42-6.47-3.05-3.06-3.05-3.06,1-4.24Z"/><path class="cls-14" d="M467,301.3q-4.49-4.8-9-9.59a2.58,2.58,0,0,0-2-.59,41.81,41.81,0,0,1,10.31-1.48c5.67.68,7.73,5.68,11,9.2.53.55.31,1.1,0,1.65Z"/><path class="cls-68" d="M198,283c3.33-.16,6.35,1.51,9.64,1.58L221.39,297c-1.73,1.82-2.63,1.34-3.41,1.5-2.55.24-5-.55-7.46-.92-4.15-4.23-8.32-8.44-12.43-12.71C197.71,284.43,195.71,283.7,198,283Z"/><path class="cls-118" d="M397,380.28c-.46-.14-1.06-.14-1.37-.44-5.94-5.95-12.19-11.6-17.74-17.94.32-1.88.3-4,2.82-4.46,3.12-.62,5.05,1.05,6.6,3.43,3.31,5.09,5.2,10.89,8.15,16.15C396,378.07,396.48,379.2,397,380.28Z"/><path class="cls-52" d="M398.54,637.45c.39-3.37-3-4.11-4.36-6.28L408,632.33c1.88.94,3.86.36,5.79.39l.9.45c1.43,2.55,4.8,3.68,5.39,7.24H417A92,92,0,0,1,398.54,637.45Z"/><path class="cls-21" d="M349.18,337.64a156.2,156.2,0,0,0,14,13.93c-6.63,3.36-16.69,1.5-17.24-6.22A8.46,8.46,0,0,1,349.18,337.64Z"/><path class="cls-65" d="M506,501.11l-13.85-13.22a21.7,21.7,0,0,1,3.66-8.08,3.48,3.48,0,0,0,1.12,2.94q4.93,4.86,9.79,9.79a3.43,3.43,0,0,0,2.9,1.22Q507.79,497.43,506,501.11Z"/><path class="cls-119" d="M310,292.66c-.52-2.94-3.24-4.13-5-6.11s-3.65-3.61-5.39-5.49c-.81-.88-2.3-1.62-1.31-3.27A50.55,50.55,0,0,1,310,283c-1.36,1.62.45,2.13,1.13,2.84,3.63,3.76,7.35,7.43,11.06,11.11a7.84,7.84,0,0,1,2.61,4.27Z"/><path class="cls-57" d="M515.56,481.21,501.71,468a19.45,19.45,0,0,1,2.94-6.61c5.17,4,8.87,9.64,14.44,13.21C517.91,476.79,516.74,479,515.56,481.21Z"/><path class="cls-120" d="M475.26,521.78a54.42,54.42,0,0,1,13.87,14c-1.17,1.87-1.4,4.21-2.95,5.9-4.48-4.61-8.36-9.86-14-13.24Z"/><path class="cls-32" d="M509.6,493.76a3.43,3.43,0,0,1-2.9-1.22q-4.86-4.94-9.79-9.79a3.48,3.48,0,0,1-1.12-2.94,17.12,17.12,0,0,1,3-5.89c.65,2.84,3.17,4.19,5,6,2.83,2.74,5.06,6.19,8.77,7.95Z"/><path class="cls-26" d="M559.13,614.54c-6-6.13-12.06-12.27-18.13-18.36-.38-.39-1.08-.46-1.62-.67a19.86,19.86,0,0,1,5-4.27c.3,1.94,1.58,3.23,2.89,4.55,5.42,5.48,10.82,11,16.23,16.5Z"/><path class="cls-15" d="M339.51,577c.2,2.23,2.25,3.09,3.43,4.58.89,1.12,2.39,1.8,2.49,3.49l-1.6.45c-3.16.08-6.36-.61-9.49.39-2.43,0-4.87.09-7.31,0-2.29-.08-5,.12-5.12-3.21-.11-3.67,3-2.57,4.84-2.58C331.3,580.06,335.67,579.69,339.51,577Z"/><path class="cls-24" d="M384.46,446.59c-4.5-4.39-9-8.75-13.49-13.17a12.8,12.8,0,0,0-4-3,18.74,18.74,0,0,1,.92-6c1.64-.9,2.1.73,2.87,1.44,5,4.61,9.34,9.82,14.59,14.13C385,442.2,385.62,444.51,384.46,446.59Z"/><path class="cls-44" d="M222.47,487.14a118.68,118.68,0,0,0,13.23,13.3l-5.42,5.07c-4-4.47-7.72-9.33-13-12.47Z"/><path class="cls-49" d="M586.48,286.7l16.89-10.36c.9,1.37,1.79,2.77,3.65,3a67.3,67.3,0,0,1-15.4,12.62C589.85,290.23,589.16,287.49,586.48,286.7Z"/><path class="cls-121" d="M474.29,159.89a49.11,49.11,0,0,1-13.13-13.17,14.47,14.47,0,0,1,7.36-3.47,24.87,24.87,0,0,0,8.65,8.56C475.66,154.31,474.36,156.88,474.29,159.89Z"/><path class="cls-122" d="M563.54,612.29c-5.41-5.5-10.81-11-16.23-16.5-1.31-1.32-2.59-2.61-2.89-4.55l2.92-2.48c0,1.69,1.39,2.51,2.4,3.53,5.81,6,11.66,11.87,17.49,17.8C566.06,610.91,565,612,563.54,612.29Z"/><path class="cls-80" d="M382.25,305.58c-.95-2.58-3.15-4-5.15-5.65a64.41,64.41,0,0,1,11-8.1c3.09.89,4.54,3.66,6.61,5.73Z"/><path class="cls-123" d="M514.93,295.49c-2.44-2.55-4.89-5.08-7.29-7.66-.9-.95-2.18-1.65-2.26-3.18a41.72,41.72,0,0,1,8.88-1.48l9.51,10.11C521.06,295,517.9,294.84,514.93,295.49Z"/><path class="cls-124" d="M307.12,159.81c-1.58-1.7-3.24-3.33-4.72-5.11-1-1.19-1.07-2.22,1.05-2.16,2.69.08,5.38,0,8.08,0,2,.1,4-.33,5.87.75-1.15,0-2.59-.08-.93,1.61,2.1,2.14,4.48,4.07,5.4,7.11Z"/><path class="cls-100" d="M477.38,300.49c.29-.55.51-1.1,0-1.65-3.29-3.52-5.35-8.52-11-9.2a44.68,44.68,0,0,1,11-1.37c2.7,2.79,5.38,5.59,8.1,8.35,1,1,2,2,.08,3Z"/><path class="cls-27" d="M417,640.41h3.15c-.59-3.56-4-4.69-5.39-7.24h12.53c2.32,3,5.51,5.2,7.32,8.61A72.78,72.78,0,0,1,417,640.41Z"/><path class="cls-125" d="M624.75,585.9l-13.26-.11c-.14-1.79-1.75-2.51-2.7-3.71s-2.39-1.76-1.77-3.54c5.72,1.09,11.43,2.18,17.28,2.19,1.64,0,3.84-.43,4,2C628.53,585,626.84,585.83,624.75,585.9Z"/><path class="cls-126" d="M489.13,318.92c-3.08-4-5.73-8.48-11-10.11,3.39-.91,6.86-.75,10.31-.74a29.72,29.72,0,0,1,10.25,10.18l-1.58.45c-1.5-.05-3-.4-4.48.34Z"/><path class="cls-127" d="M293.8,323.22l-5.6-5.72c-.7-.72-.71-1.22.45-1.33a51.87,51.87,0,0,1,16.87,8.13,25.81,25.81,0,0,1,7.55,8.74l-.07,1.71C307.88,328.78,301.11,325.54,293.8,323.22Z"/><path class="cls-128" d="M477.17,151.81a24.87,24.87,0,0,1-8.65-8.56c7-2.36,13.15-.59,19,4C483.89,148.7,479.87,148.83,477.17,151.81Z"/><path class="cls-129" d="M166.37,272.8c5.33,5.41,10.69,10.8,15.95,16.28.72.75,2.38,1.07,1.77,2.74-2.81-.69-5.66-1.28-8.11-2.94,2.1-1.06,0-1.67-.37-2.08-5.47-5.59-11-11.09-16.54-16.64-.93-.93-2.18-1.67-2.3-3.19Z"/><path class="cls-130" d="M228.24,319c-3.93,0-7.88.5-11.75-.62a4,4,0,0,0,3.47-1.56l-11.58-10.12a34.26,34.26,0,0,1,8.86.74Z"/><path class="cls-42" d="M498.7,318.25a29.72,29.72,0,0,0-10.25-10.18c3.38-1,6.85-.64,10.29-.72,1.9,2,3.84,4,5.68,6.06,1,1.13,3.08,1.95,2.66,3.54s-2.72,0-3.83,1.14A11.26,11.26,0,0,1,498.7,318.25Z"/><path class="cls-105" d="M537.1,277.28c2.85,2.75,4.93,6.35,8.82,7.94a23,23,0,0,1-8.17,3.65c-2.53-2.41-5-4.82-7.58-7.22-.67-.62-1.15-1.24-.52-2.15Z"/><path class="cls-25" d="M586.48,286.7c2.68.79,3.37,3.53,5.14,5.22a63.55,63.55,0,0,1-9.68,6.31c-1.79-2.43-4.58-4-5.79-6.93Z"/><path class="cls-113" d="M419.18,318.39c2,.77,4,1.49,3.67,4.21-6.94,1.92-13.76,4-19.26,9.12-1.2,1.12-1.79,3-3.65,3.42C402,328.05,410.24,320.92,419.18,318.39Z"/><path class="cls-30" d="M163.38,186.37c.47,3.31,4.51,4.09,5.17,7.26A66.05,66.05,0,0,0,162,202a28.06,28.06,0,0,0-5.87-5.9A25.67,25.67,0,0,1,163.38,186.37Z"/><path class="cls-18" d="M170,312.35c-2.31-4.32-6.45-7-9.58-10.57-1-1.1-2-2.18-2.94-3.27l8.84,2.21c3.28,3.39,6.56,6.79,9.85,10.16,1,1.05,2.18,2,2,3.68C175.51,313.58,172.53,313.86,170,312.35Z"/><path class="cls-131" d="M556.18,298.39c1.06,3.68,4.94,5.07,6.67,8.21-2.45,1.68-5.36,2-8.13,2.81-2.06-3.28-6.11-4.88-7.39-8.81Z"/><path class="cls-6" d="M198,283c-2.29.69-.29,1.42.09,1.82,4.11,4.27,8.28,8.48,12.43,12.71-2.46-.32-5-.1-7.34-1.19-2.44-3.49-5.91-6-8.67-9.2-1.79-2-4.47-3.38-5.3-6.24C192.12,281.69,195.2,281.78,198,283Z"/><path class="cls-6" d="M178.15,314.56c.23-1.69-.93-2.63-2-3.68-3.29-3.37-6.57-6.77-9.85-10.16a25.72,25.72,0,0,1,8.14,1.56c3.22,3.31,6.46,6.62,9.67,10,.9.94,2.15,1.69,2.06,3.27Z"/><path class="cls-132" d="M417.11,274.14c3.89,2.12,6.48,5.64,9.38,8.82a45.46,45.46,0,0,1-9.57,3.6,12.54,12.54,0,0,0-6.59-6.5c1.34-1.36,3.16-1.76,4.87-2.23C417.32,277.24,417.76,276,417.11,274.14Z"/><path class="cls-133" d="M281.36,156.26c1,2.43,4.63,3.12,4.37,6.44l-9.58,4.49c-1.36-2.41-4.34-3.5-5.16-6.34A37,37,0,0,1,281.36,156.26Z"/><path class="cls-75" d="M359.33,152.5c0,5.38.07,10.76.07,16.14,0,.69.26,1.6-.61,1.92s-1.24-.55-1.82-.94c-4-2.69-2.34-6.8-2.68-10.41l.12-9.62C356.59,149.65,357.1,152.52,359.33,152.5Z"/><path class="cls-80" d="M175.91,218c-2.36-2.45-4.7-4.91-7.07-7.33-1-1-1.94-1.88-1.76-3.41,5.73.21,10.92,1.78,15.2,5.79,1.43,1.33,2.24,2.36-.61,3A44.57,44.57,0,0,0,175.91,218Z"/><path class="cls-134" d="M400,313.2A11.09,11.09,0,0,1,403.7,317c-6.69,5.2-12.91,10.87-17.63,18C388.84,326.53,392.87,318.9,400,313.2Z"/><path class="cls-135" d="M523.77,293.28l-9.51-10.11c2.47-.39,4.76-1.69,7.35-1.53,3.28,3.29,5.9,7.3,10.23,9.44C529.23,292.12,526.66,293.27,523.77,293.28Z"/><path class="cls-136" d="M394.76,297.56c-2.07-2.07-3.52-4.84-6.61-5.73a47.48,47.48,0,0,1,8.76-5.2c3.15,1,4.81,3.69,6.79,6Z"/><path class="cls-137" d="M583.36,245.38c-1.56-.87-3.42-1.45-3.58-3.68,3.12-7.17,7-14,9.9-21.27C588.81,229.09,587.36,237.56,583.36,245.38Z"/><path class="cls-129" d="M189.21,280.91c.83,2.86,3.51,4.19,5.3,6.24,2.76,3.18,6.23,5.71,8.67,9.2-2.49-.31-5.05-.3-7.37-1.48,0-2-1.73-2.86-2.87-4.05-3.15-3.26-6.42-6.4-9.56-9.66-.38-.39-2.44-1.11-.12-1.83Z"/><path class="cls-138" d="M218,298.46c.78-.16,1.68.32,3.41-1.5l-13.75-12.37,6.66.91,13.44,13.7H224.6C222.38,299.08,220.1,299.47,218,298.46Z"/><path class="cls-139" d="M490.64,286.79l10.26,10.83c-2.79,1.26-5.79,1.24-8.75,1.41,1.62-1,1.2-1.95,0-3.11-2.79-2.73-5.45-5.58-8.16-8.39C486.13,286.54,488.39,286.73,490.64,286.79Z"/><path class="cls-117" d="M195.11,305.22l7.38.81,11.73,12.22c-2.94.07-5.9.34-8.76-.63,2.32-.74.26-1.45-.12-1.85C202,312.22,198.53,308.73,195.11,305.22Z"/><path class="cls-140" d="M195.11,305.22c3.42,3.51,6.86,7,10.23,10.55.38.4,2.44,1.11.12,1.85-2.72-.11-5.47.25-8.11-.74,2.51-.77.71-1.74,0-2.45-3.18-3.35-6.42-6.63-9.64-9.94Z"/><path class="cls-100" d="M531.84,291.08c-4.33-2.14-7-6.15-10.23-9.44l8-2.14c-.63.91-.15,1.53.52,2.15,2.54,2.4,5.05,4.81,7.58,7.22A15.3,15.3,0,0,1,531.84,291.08Z"/><path class="cls-141" d="M281.29,121.52c1.86,3.4,4,6.48,8.1,7.43-4.5,1.3-8,4.12-10.95,7.59-.86,1-1.45,1.21-1.81-.32,0-1.41.07-2.82.1-4.24A14.94,14.94,0,0,1,281.29,121.52Z"/><path class="cls-135" d="M484,287.53c2.71,2.81,5.37,5.66,8.16,8.39,1.18,1.16,1.6,2.08,0,3.11-2.21.09-4.34,1-6.6.62,1.89-1.06,1-2-.08-3-2.72-2.76-5.4-5.56-8.1-8.35C479.5,287.3,481.77,287.53,484,287.53Z"/><path class="cls-115" d="M224.6,299.2h3.14L214.3,285.5l5.16.61c5.69,3.1,9.34,8.44,13.84,12.83,1.07,1-.77.75-1.33,1C229.5,299.88,227,300.19,224.6,299.2Z"/><path class="cls-35" d="M88.27,364.05c-2.67,0-5.33.05-8,0-2.29-.05-4.47-.35-4.57-3.4-.1-3.27,2.18-3.23,4.44-3.21a9.06,9.06,0,0,1,9.4,3.88c.47.65,1.58,1.09,1.26,2C90.39,364.54,89.14,363.85,88.27,364.05Z"/><path class="cls-135" d="M503.25,318.09c1.11-1.12,3.42.4,3.83-1.14s-1.65-2.41-2.66-3.54c-1.84-2.07-3.78-4-5.68-6.06,2.13-1,4.42-.5,6.64-.65,2.45,2.53,4.87,5.09,7.35,7.6,1,1,2,2,.09,3C509.63,317.63,506.49,318.46,503.25,318.09Z"/><path class="cls-139" d="M536.27,313.93c-3.79-2.53-6.34-6.29-9.5-9.44,2.31-1.2,4.83-1.26,7.35-1.33,2.23,3.75,5.49,6.53,8.78,9.3A16.64,16.64,0,0,1,536.27,313.93Z"/><path class="cls-142" d="M241.5,288.9c2,.07,4-.3,5.88.74-.43.1-1.29.31-.84.72,4.63,4.2,7.84,10,14.11,12.35l-7.42-.85c-5.49-2.73-8.81-7.87-13.06-12C239.1,288.86,240.92,289.13,241.5,288.9Z"/><path class="cls-143" d="M368.1,181.28c-3,0-4-2.18-5-4.44,1.92-3.6,4.1-7,7.36-9.57,1.18,1.57,2.2,3.33,4.4,3.69C372.07,174,369.5,177.28,368.1,181.28Z"/><path class="cls-144" d="M228.24,319l-11-11.56c2.69.08,5.43-.41,8,.64-.65,1.31.67,1.63,1.22,2.22,2.74,2.95,5.58,5.81,8.38,8.7Z"/><path class="cls-145" d="M296.8,302.13c2.9,4.42,6.72,8,10.59,11.54a7.68,7.68,0,0,1,2.68,3.77c-3.22-1.65-6.05-4-9.58-5.09-2.32-4.51-6.77-7.09-9.86-10.89-.75-.91-2.34-1.31-2-3C291.45,299.52,294.43,300.15,296.8,302.13Z"/><path class="cls-146" d="M607,279.3c-1.86-.19-2.75-1.59-3.65-3l11.14-9.59a65.74,65.74,0,0,1,6.13-4.93A66.92,66.92,0,0,1,607,279.3Z"/><path class="cls-147" d="M88.27,364.05c.87-.2,2.12.49,2.54-.71.32-.93-.79-1.37-1.26-2a9.06,9.06,0,0,0-9.4-3.88c4.06-1.38,8.27-.09,12.37-.7l1.61.59c.33,2.62,2.87,3.53,4.16,5.39.82,1.19,2.81,1.56,2.51,3.54Z"/><path class="cls-56" d="M542.9,312.46c-3.29-2.77-6.55-5.55-8.78-9.3l8-1.56c-1,.68-1,1.27-.25,2.32A36,36,0,0,0,548.8,311,11.68,11.68,0,0,1,542.9,312.46Z"/><path class="cls-148" d="M403.7,292.65c-2-2.33-3.64-5-6.79-6,2.35-1.46,4.63-3,7.38-3.69,2.77,1.46,5.6,2.87,6,6.51Z"/><path class="cls-142" d="M548.8,311a36,36,0,0,1-6.89-7.06c-.74-1.05-.77-1.64.25-2.32l5.17-1c1.28,3.93,5.33,5.53,7.39,8.81A17.91,17.91,0,0,1,548.8,311Z"/><path class="cls-149" d="M512.82,317.34c1.9-1.07.94-2-.09-3-2.48-2.51-4.9-5.07-7.35-7.6l2.22-.12c3.57,0,11.28,5.51,12.28,8.81.11.36-.31.88-.48,1.33C517.19,316.79,515.07,317.78,512.82,317.34Z"/><path class="cls-5" d="M234.88,319c-2.8-2.89-5.64-5.75-8.38-8.7-.55-.59-1.87-.91-1.22-2.22,3.45.11,6.95-.38,10.33.72-1.25.2-2.6-.37-4,.5l9.21,9.84-.66.18Z"/><path class="cls-150" d="M241.5,288.9c-.58.23-2.4,0-1.33,1,4.25,4.1,7.57,9.24,13.06,12-2.25.47-4.38-.33-6.56-.56-3.67-3.76-7.36-7.5-11-11.3-.39-.41-2.4-1.14-.09-1.84C237.59,288.23,239.62,287.91,241.5,288.9Z"/><path class="cls-151" d="M240.79,319.13l-9.21-9.84c1.43-.87,2.78-.3,4-.5l.79.12c2.43,2.52,5,4.94,7.25,7.6a6.56,6.56,0,0,0,6.71,2.49c2.92.46,5.95-.61,8.81.67l-14.51.11C243.47,319,242,319.57,240.79,319.13Z"/><path class="cls-152" d="M214.22,318.25,202.49,306l5.89.66L220,316.81a4,4,0,0,1-3.47,1.56Z"/><path class="cls-153" d="M410.32,289.45c-.43-3.64-3.26-5.05-6-6.51a16,16,0,0,1,6-2.88,12.54,12.54,0,0,1,6.59,6.5C414.74,287.59,412.77,289.06,410.32,289.45Z"/><path class="cls-154" d="M135.29,243.93c-1.68-1.59-3.34-3.2-5-4.76-.82-.75-1.76-1.82-2.2.31a55.83,55.83,0,0,1-3.35-17.23C127.72,229.77,131.62,236.79,135.29,243.93Z"/><path class="cls-140" d="M260.65,302.71c-6.27-2.31-9.48-8.15-14.11-12.35-.45-.41.41-.62.84-.72,1.75.07,3.55-.27,5.16.74-2.29.7-.29,1.4.09,1.82,3.31,3.69,7.29,6.75,10.24,10.78Z"/><path class="cls-93" d="M250.36,319a6.56,6.56,0,0,1-6.71-2.49c-2.27-2.66-4.82-5.08-7.25-7.6,3.2-.13,6.4-.32,9.52.62h-4.11C244.26,313.43,248,315.66,250.36,319Z"/><path class="cls-155" d="M347.7,619.75l-.75.72-6-2.67C343.88,617.41,345.7,618.86,347.7,619.75Z"/><path class="cls-105" d="M220.84,264.77a8.38,8.38,0,0,1-6.52,0Z"/><path class="cls-46" d="M353.6,585a7.26,7.26,0,0,1,5.71-.14Z"/><path class="cls-15" d="M207.58,358.18c-1.41-.16-2.89.37-4.24-.41C204.76,357.8,206.25,357.23,207.58,358.18Z"/><path class="cls-14" d="M460.45,302c1.33-1.05,2.89-.38,4.33-.57C463.44,302.39,461.89,301.75,460.45,302Z"/><path class="cls-156" d="M313,334.75l.07-1.71c.58.75,1.53,1.36.95,2.54Z"/><path class="cls-80" d="M165.56,207.29c-1.07.94-2.38.4-3.58.55C163.06,206.92,164.36,207.44,165.56,207.29Z"/><path class="cls-15" d="M449.4,201.18c-5.2-.05-9-2.61-12-6.67-5.73-7.91-8.42-8.91-17.55-6.29-4.34,1.24-4.34,1.24-4.17-3.17.26-7.18,4.91-11.91,13.08-13.32,2.47.26,2.92,2.74,4.34,4.12,8.43,8.3,16.71,16.76,25,25.16l-1.48.16Z"/><path class="cls-71" d="M319.69,249.86c2.87-1.34,5.87-.7,8.84-.57q17.46,17.58,34.94,35.14a13.63,13.63,0,0,1,3.31,4.34c-1.06.2-2.2.76-3.17.54-2.87-.67-3.91.68-4.19,3.21.38-2.09-.81-3.4-2.17-4.75q-17-16.89-33.87-33.85C322.09,252.63,320.92,251.21,319.69,249.86Z"/><path class="cls-57" d="M450.85,246.93c1.38-5.87-2.2-9.16-6.43-12,.56-1.44,1.74-1.48,2.74-1.82.19,1.65,1.59,2.41,2.59,3.42q17.33,17.38,34.69,34.74c1,1,2.38,1.8,2.52,3.47-5.73,1-10.09-.76-14.11-5.29C465.88,261.64,458.22,254.42,450.85,246.93Z"/><path class="cls-64" d="M279.1,171.1a21.24,21.24,0,0,1,13,3.06c5,3.14,6.8,8.1,6.05,13.56-.49,3.61-2.76.15-4.22.18.64-1.3-.66-1.63-1.22-2.21-3.74-3.84-7.56-7.59-11.33-11.4C280.43,173.37,279.18,172.63,279.1,171.1Z"/><path class="cls-119" d="M274,254.23a69.11,69.11,0,0,1,16.92,4.63c6.93,3,8.77,8.47,5.72,16.08-.65.56-1.11,2-2.27.74-6.63-7-14.13-13.13-20.06-20.79A3.07,3.07,0,0,1,274,254.23Z"/><path class="cls-157" d="M345.37,187c1.84-2.37.25-4.79.11-7.19,2.73,1,4.39,3.39,6.38,5.32,5,4.82,9.89,9.69,14.83,14.54a43,43,0,0,0,.88,8.84c-1.57,1.52-2.13-.31-2.82-1-5.89-5.79-11.71-11.65-17.56-17.49C346.33,189.19,345.39,188.39,345.37,187Z"/><path class="cls-141" d="M345.37,187c0,1.37,1,2.17,1.82,3,5.85,5.84,11.67,11.7,17.56,17.49.69.68,1.25,2.51,2.82,1,1.58,3.91,2.78,8,5.59,11.31,3.79,4.52,8.79,6.64,14.33,7.86-.55.14-1.61.4-1.18.91,1.58,1.91,2.48,4.67,5.51,5-5.72,1.4-10.83-.75-15.68-3.19-5.3-2.66-9.46-6.86-13-11.65-1.54-3.62-4.92-5.62-7.46-8.35-4-4.36-9.5-7.83-8.52-15-1.1-3.35-3.71-2.45-6.08-2.14-.68.09-1.43.85-2,.13s0-1.62.39-2.36C340.74,188.68,343.11,187.92,345.37,187Z"/><path class="cls-78" d="M366.78,288.77a13.63,13.63,0,0,0-3.31-4.34Q346,266.88,328.53,249.29c4.43.36,8.45,2.08,12.48,3.77.38,2.06,1.84,3.39,3.22,4.78l28.46,28.75A9.54,9.54,0,0,1,366.78,288.77Z"/><path class="cls-158" d="M347.18,195.41c-1,7.17,4.48,10.64,8.52,15,2.54,2.73,5.92,4.73,7.46,8.35-1.57-1.44-2.64-1.35-3.26.92a12,12,0,0,0-.2,4.34c.67,7.18.18,14.37.29,21.55,0,.43-.36.86-.55,1.29,0-1.2-.05-2.4-.08-3.61,0-3.54,0-7.08.07-10.63,0-2.83-2.47-3.92-4.22-4.36-1.51-.39-.55,2.09-1,3.22-1.09-2.73-.43-5.54-.39-8.33,0-.71.33-1.51.1-2.12-.43-1.1.31-2.82-1.07-3.27s-1.83,1.31-2.72,2.05c-1.2,1-1.54,2.85-3.28,3.31-.7-2.42-2.7-3.67-4.55-5.07C346.53,211.06,347.31,203.33,347.18,195.41Z"/><path class="cls-46" d="M372.69,286.59l-28.46-28.75c-1.38-1.39-2.84-2.72-3.22-4.78a43.05,43.05,0,0,1,11.6,7.45c2.15,1.89,1.52-.18,1.79-1.06,8.65,6.82,16.14,14.82,23.39,23.06.06.08,0,.24,0,.36C376.35,284.45,375,286.11,372.69,286.59Z"/><path class="cls-98" d="M409.59,206.36c-1.78-10.44-5.85-14.5-15.55-15.5a5.17,5.17,0,0,1-5.1-5c7.51-2.45,13.83.06,19.51,4.85,6.65,5.63,9.4,12.82,8.29,21.48C413.56,211.24,412.34,207.87,409.59,206.36Z"/><path class="cls-159" d="M396.37,214.62c-6.16,4.59-14.81,2-18-5.65-2-4.74-2.52-9.62.25-14.37,1.44,1.74,2.62,3.78,5.05,4.37.67.92.24,2.42,1.57,3,0,1.54,1.27,2.26,2.14,3.21C390.32,208.39,393.81,211.07,396.37,214.62Z"/><path class="cls-132" d="M380.12,250.58c9.74-3.83,19.74-1.1,24.27,6.61,1.88,3.21,1.71,3.58-2,3.5-3.25-.06-6.34.28-9.08,2.2-1.94-2-3.76-4.15-5.84-6C385,254.76,383.45,251.64,380.12,250.58Z"/><path class="cls-90" d="M377.82,282.87c0-.12,0-.28,0-.36-7.25-8.24-14.74-16.24-23.39-23.06v-7.38c3.05,2.31,6.07,4.62,5.06,9.17-.08.35.24.65.7.42l2.87-2.31a239.63,239.63,0,0,1,18.58,18.59A16.14,16.14,0,0,1,377.82,282.87Z"/><path class="cls-5" d="M381.61,277.94A239.63,239.63,0,0,0,363,259.35a16,16,0,0,1,5.3-3.6c1.08,1,2.18,1.9,3.23,2.89C376.24,263,380.35,268,385.4,272A23.56,23.56,0,0,1,381.61,277.94Z"/><path class="cls-160" d="M396.37,214.62c-2.56-3.55-6.05-6.23-9-9.44-.87-1-2.14-1.67-2.14-3.21,4.23-4.25,9.75-4.71,13.14-1.11S401,210.53,396.37,214.62Z"/><path class="cls-148" d="M385.4,272c-5-4-9.16-9-13.84-13.37-1.05-1-2.15-1.93-3.23-2.89a13.51,13.51,0,0,1,5.81-3c5.95,3.68,10.17,9.18,14.87,14.17Z"/><path class="cls-141" d="M389,266.93c-4.7-5-8.92-10.49-14.87-14.17a11.46,11.46,0,0,1,6-2.18c3.33,1.06,4.92,4.18,7.32,6.31,2.08,1.85,3.9,4,5.84,6Z"/><path class="cls-80" d="M409.59,206.36c2.75,1.51,4,4.88,7.15,5.87-.58,4.4-1.89,8.49-5.09,11.77-1.89-1.75-4.28-3.07-5-5.81A32.58,32.58,0,0,0,409.59,206.36Z"/><path class="cls-161" d="M406.63,218.19c.74,2.74,3.13,4.06,5,5.81-2,3.48-5.1,5.42-8.77,6.65-2.54-.6-3.77-2.69-5.2-4.56A21.25,21.25,0,0,0,406.63,218.19Z"/><path class="cls-143" d="M383.68,199c-2.43-.59-3.61-2.63-5.05-4.37a15.3,15.3,0,0,1,10.31-8.7,5.17,5.17,0,0,0,5.1,5C389.21,191.8,384.82,193.32,383.68,199Z"/><path class="cls-162" d="M397.68,226.09c1.43,1.87,2.66,4,5.2,4.56a20.22,20.22,0,0,1-11.06,2.95c-3-.32-3.93-3.08-5.51-5-.43-.51.63-.77,1.18-.91A37.51,37.51,0,0,0,397.68,226.09Z"/><path class="cls-163" d="M360.16,261.66c-.46.23-.78-.07-.7-.42,1-4.55-2-6.86-5.06-9.17v-11.8c2.21.06,2.78,2.87,5,3,0,1.21.06,2.41.08,3.61Z"/><path class="cls-6" d="M449.4,201.18h7.27A10.86,10.86,0,0,1,449.4,201.18Z"/><path class="cls-40" d="M304.93,212.25c2.46,7.38,6.67,13,14.73,14.86a13.66,13.66,0,0,0,3.32,4.34c.89.87,1.6,1.83-.43,2.19-13.28-.28-23.83-9-25-20.6,0-1.08,0-2.16.06-3.24.05-.79-.39-1.84.57-2.27s1.41.62,2,1.1C301.77,209.83,302.61,212,304.93,212.25Z"/><path class="cls-132" d="M311.44,187.13a17.84,17.84,0,0,1,20.37,2.38c4.92,4.31,6.58,11.79,4.07,18.36-1-3.1-3.67-4.76-6-6.71.95-7.27-5.13-10.21-11.82-9.94-1,0-1.92.14-2.87.21C314.74,189.31,313,188.28,311.44,187.13Z"/><path class="cls-72" d="M314.32,203.33a6.07,6.07,0,0,1,5.3-4.37L333,213.08a8,8,0,0,1-6,3.32C323.55,211.29,318.87,207.37,314.32,203.33Z"/><path class="cls-164" d="M333,213.08,319.62,199c3.42-1.42,6.3-.18,8.36,2.41,1.25,1.58,1.31,0,1.91-.21,2.32,2,4.95,3.61,6,6.71A9.36,9.36,0,0,1,333,213.08Z"/><path class="cls-160" d="M304.93,212.25c-2.32-.25-3.16-2.42-4.75-3.62-.63-.48-1.07-1.55-2-1.1s-.52,1.48-.57,2.27c-.07,1.08,0,2.16-.06,3.24a20.47,20.47,0,0,1,3.56-17.1,15.79,15.79,0,0,1,4.55,4.48C304.18,204.29,304.82,208.28,304.93,212.25Z"/><path class="cls-165" d="M314.32,203.33c4.55,4,9.23,8,12.68,13.07-6.37,2-12.17-1.64-13.74-8.72C312.88,206,313.8,204.73,314.32,203.33Z"/><path class="cls-166" d="M342.34,218.05c1.85,1.4,3.85,2.65,4.55,5.07-3,3.15-5.85,6.41-10.32,7.46q-1.86-2.21-3.7-4.43C336.48,224,339.9,221.58,342.34,218.05Z"/><path class="cls-160" d="M332.87,226.15q1.85,2.22,3.7,4.43c-4.33,2.62-8.92,4-14,3.06,2-.36,1.32-1.32.43-2.19a13.66,13.66,0,0,1-3.32-4.34C324.17,228.23,328.54,227.41,332.87,226.15Z"/><path class="cls-167" d="M305.62,200.42a15.79,15.79,0,0,0-4.55-4.48,19.72,19.72,0,0,1,10.37-8.81c1.58,1.15,3.3,2.18,3.76,4.3C310.49,192.81,307.77,196.31,305.62,200.42Z"/><path class="cls-168" d="M359.36,243.25c-2.18-.11-2.75-2.92-5-3l-.15-8.79c.41-1.13-.55-3.61,1-3.22,1.75.44,4.25,1.53,4.22,4.36C359.39,236.17,359.38,239.71,359.36,243.25Z"/></g></svg>